<svg width="28" height="31" viewBox="0 0 28 31" fill="none" xmlns="http://www.w3.org/2000/svg">
<path d="M2 8H26M11 14V23M17 14V23M3.5 8L5 26C5 26.7956 5.31607 27.5587 5.87868 28.1213C6.44129 28.6839 7.20435 29 8 29H20C20.7956 29 21.5587 28.6839 22.1213 28.1213C22.6839 27.5587 23 26.7956 23 26L24.5 8M9.5 8V3.5C9.5 3.10218 9.65804 2.72064 9.93934 2.43934C10.2206 2.15804 10.6022 2 11 2H17C17.3978 2 17.7794 2.15804 18.0607 2.43934C18.342 2.72064 18.5 3.10218 18.5 3.5V8" stroke="black" stroke-width="2.5" stroke-linecap="round" stroke-linejoin="round"/>
</svg>
