<svg width="28" height="27" viewBox="0 0 28 27" fill="none" xmlns="http://www.w3.org/2000/svg">
<path fill-rule="evenodd" clip-rule="evenodd" d="M13.3391 26.2905C14.2153 25.8244 14.9621 25.1505 15.5133 24.3285L19.3074 18.6675C19.4452 18.4621 19.6319 18.2937 19.8508 18.1773C19.8994 18.1515 19.9492 18.1284 20 18.1081V-1.62264e-07H6.33643C5.29003 -6.50121e-05 4.27593 0.360397 3.46673 1.02004C2.65752 1.67968 2.1032 2.59775 1.89811 3.618L0.0877819 12.618C-0.0434551 13.2708 -0.0273685 13.9445 0.134886 14.5904C0.29714 15.2364 0.601517 15.8384 1.02607 16.3533C1.45063 16.8681 1.98478 17.2828 2.59002 17.5676C3.19527 17.8524 3.85652 18 4.5261 18H8.11658L7.19332 23.5065C7.12122 23.9363 7.14417 24.3766 7.26055 24.7967C7.37694 25.2168 7.58397 25.6067 7.86725 25.9391C8.15053 26.2716 8.50326 26.5388 8.9009 26.722C9.29853 26.9052 9.73154 27.0001 10.1698 27H10.4911C11.4847 27.0002 12.463 26.7565 13.3391 26.2905ZM22 -1.62264e-07V3H23.4742C23.8743 3 24.258 3.15803 24.5409 3.43934C24.8238 3.72064 24.9828 4.10217 24.9828 4.5V15H22V18H26.4914C26.8915 18 27.2752 17.842 27.5581 17.5607C27.8411 17.2794 28 16.8978 28 16.5V4.5C28 3.30653 27.5232 2.16193 26.6744 1.31802C25.8257 0.474106 24.6745 -1.62264e-07 23.4742 -1.62264e-07H22Z" fill="black"/>
<rect x="25" y="17" width="3" height="14" transform="rotate(180 25 17)" fill="black"/>
</svg>
