<svg width="28" height="28" viewBox="0 0 28 28" fill="none" xmlns="http://www.w3.org/2000/svg">
<mask id="path-1-inside-1_43_86" fill="white">
<path d="M9.78309 17.5334L10.9304 17.7241C10.9581 17.5575 10.9491 17.3869 10.9042 17.2242C10.8593 17.0614 10.7795 16.9104 10.6703 16.7816C10.5611 16.6527 10.4252 16.5493 10.272 16.4783C10.1188 16.4073 9.95194 16.3706 9.78309 16.3706V17.5334ZM26.8372 17.5334V18.6962C27.1456 18.6962 27.4414 18.5737 27.6594 18.3556C27.8775 18.1376 28 17.8418 28 17.5334H26.8372ZM23.7365 0.866878H6.1242V3.19244H23.7365V0.866878ZM4.26375 18.6962H9.78309V16.3706H4.26375V18.6962ZM8.63581 17.3427L7.38621 24.8388L9.68076 25.2217L10.9304 17.7241L8.63581 17.3427ZM10.0622 27.9984H10.3939V25.6729H10.0637L10.0622 27.9984ZM15.2327 25.4093L19.1319 19.5598L17.197 18.2698L13.2978 24.1194L15.2327 25.4093ZM20.7442 18.6962H26.8372V16.3706H20.7442V18.6962ZM28 17.5334V5.13041H25.6744V17.5334H28ZM1.94284 4.29321L0.082387 13.5955L2.36144 14.0528L4.22189 4.75057L1.94284 4.29321ZM19.1319 19.5598C19.3087 19.2942 19.5485 19.078 19.8298 18.9273C20.111 18.7767 20.4252 18.6978 20.7442 18.6977V16.3722C19.3179 16.3722 17.9877 17.0838 17.197 18.2698L19.1319 19.5598ZM7.38621 24.8388C7.32161 25.2274 7.34239 25.6269 7.44711 26.0066C7.55184 26.3863 7.73799 26.7387 7.99264 27.0392C8.24728 27.3398 8.56431 27.5813 8.9217 27.7469C9.27908 27.9125 9.66825 27.9984 10.0622 27.9984L10.0637 25.6729C10.0075 25.6727 9.95046 25.6604 9.89952 25.6367C9.84857 25.613 9.80339 25.5784 9.76711 25.5355C9.73083 25.4926 9.70431 25.4423 9.6894 25.3881C9.67449 25.3339 9.67155 25.2772 9.68076 25.2217L7.38621 24.8388ZM4.26375 16.3722C3.03895 16.3722 2.12423 15.2528 2.36299 14.0544L0.082387 13.597C-0.0409894 14.2155 -0.0256328 14.8551 0.127353 15.4669C0.280338 16.0787 0.567143 16.649 0.967094 17.1366C1.36705 17.6242 1.87018 18.017 2.44025 18.2867C3.01031 18.5564 3.63311 18.6962 4.26375 18.6962V16.3722ZM6.1242 0.866878C5.13862 0.866685 4.1834 1.20951 3.42107 1.83419C2.65874 2.45886 2.13637 3.32836 1.94284 4.29476L4.22189 4.75212C4.30977 4.31243 4.5474 3.91682 4.89428 3.63271C5.24115 3.34859 5.67582 3.19199 6.1242 3.19244V0.866878ZM10.3939 27.9984C11.351 27.9984 12.2933 27.7636 13.1371 27.3119C13.981 26.8602 14.7002 26.2072 15.2311 25.4109L13.2978 24.1194C12.9791 24.5975 12.5473 24.9909 12.0407 25.2619C11.5341 25.533 10.9685 25.6731 10.3939 25.6729V27.9984ZM23.7365 3.19244C24.8062 3.19244 25.6744 4.06065 25.6744 5.13041H28C28 3.99965 27.5508 2.9152 26.7512 2.11564C25.9517 1.31607 24.8672 0.866878 23.7365 0.866878V3.19244Z"/>
</mask>
<path d="M9.78309 17.5334L10.9304 17.7241C10.9581 17.5575 10.9491 17.3869 10.9042 17.2242C10.8593 17.0614 10.7795 16.9104 10.6703 16.7816C10.5611 16.6527 10.4252 16.5493 10.272 16.4783C10.1188 16.4073 9.95194 16.3706 9.78309 16.3706V17.5334ZM26.8372 17.5334V18.6962C27.1456 18.6962 27.4414 18.5737 27.6594 18.3556C27.8775 18.1376 28 17.8418 28 17.5334H26.8372ZM23.7365 0.866878H6.1242V3.19244H23.7365V0.866878ZM4.26375 18.6962H9.78309V16.3706H4.26375V18.6962ZM8.63581 17.3427L7.38621 24.8388L9.68076 25.2217L10.9304 17.7241L8.63581 17.3427ZM10.0622 27.9984H10.3939V25.6729H10.0637L10.0622 27.9984ZM15.2327 25.4093L19.1319 19.5598L17.197 18.2698L13.2978 24.1194L15.2327 25.4093ZM20.7442 18.6962H26.8372V16.3706H20.7442V18.6962ZM28 17.5334V5.13041H25.6744V17.5334H28ZM1.94284 4.29321L0.082387 13.5955L2.36144 14.0528L4.22189 4.75057L1.94284 4.29321ZM19.1319 19.5598C19.3087 19.2942 19.5485 19.078 19.8298 18.9273C20.111 18.7767 20.4252 18.6978 20.7442 18.6977V16.3722C19.3179 16.3722 17.9877 17.0838 17.197 18.2698L19.1319 19.5598ZM7.38621 24.8388C7.32161 25.2274 7.34239 25.6269 7.44711 26.0066C7.55184 26.3863 7.73799 26.7387 7.99264 27.0392C8.24728 27.3398 8.56431 27.5813 8.9217 27.7469C9.27908 27.9125 9.66825 27.9984 10.0622 27.9984L10.0637 25.6729C10.0075 25.6727 9.95046 25.6604 9.89952 25.6367C9.84857 25.613 9.80339 25.5784 9.76711 25.5355C9.73083 25.4926 9.70431 25.4423 9.6894 25.3881C9.67449 25.3339 9.67155 25.2772 9.68076 25.2217L7.38621 24.8388ZM4.26375 16.3722C3.03895 16.3722 2.12423 15.2528 2.36299 14.0544L0.082387 13.597C-0.0409894 14.2155 -0.0256328 14.8551 0.127353 15.4669C0.280338 16.0787 0.567143 16.649 0.967094 17.1366C1.36705 17.6242 1.87018 18.017 2.44025 18.2867C3.01031 18.5564 3.63311 18.6962 4.26375 18.6962V16.3722ZM6.1242 0.866878C5.13862 0.866685 4.1834 1.20951 3.42107 1.83419C2.65874 2.45886 2.13637 3.32836 1.94284 4.29476L4.22189 4.75212C4.30977 4.31243 4.5474 3.91682 4.89428 3.63271C5.24115 3.34859 5.67582 3.19199 6.1242 3.19244V0.866878ZM10.3939 27.9984C11.351 27.9984 12.2933 27.7636 13.1371 27.3119C13.981 26.8602 14.7002 26.2072 15.2311 25.4109L13.2978 24.1194C12.9791 24.5975 12.5473 24.9909 12.0407 25.2619C11.5341 25.533 10.9685 25.6731 10.3939 25.6729V27.9984ZM23.7365 3.19244C24.8062 3.19244 25.6744 4.06065 25.6744 5.13041H28C28 3.99965 27.5508 2.9152 26.7512 2.11564C25.9517 1.31607 24.8672 0.866878 23.7365 0.866878V3.19244Z" fill="black"/>
<path d="M1.31997 13.3346L0.180445 13.1067L-0.0156706 14.0873L1.12386 14.3152L1.31997 13.3346ZM5.6242 0.866878V3.19244H6.6242V0.866878H5.6242ZM24.2365 3.19244V0.866878H23.2365V3.19244H24.2365ZM7.3039 25.332L9.59845 25.7149L9.76307 24.7285L7.46851 24.3456L7.3039 25.332ZM10.8939 27.9984V25.6729H9.89393V27.9984H10.8939ZM9.5637 25.6726L9.56216 27.9981L10.5622 27.9988L10.5637 25.6732L9.5637 25.6726ZM19.4092 19.1437L17.4743 17.8538L16.9196 18.6859L18.8545 19.9758L19.4092 19.1437ZM28 4.63041H25.6744V5.63041H28V4.63041ZM9.78309 17.5334H8.78309V18.3809L9.61912 18.5199L9.78309 17.5334ZM10.9304 17.7241L11.9168 17.8885L11.9168 17.8881L10.9304 17.7241ZM26.8372 17.5334V16.5334H25.8372V17.5334H26.8372ZM0.082387 13.597L0.279015 12.6165L-0.702455 12.4197L-0.89829 13.4014L0.082387 13.597ZM6.1242 0.866878L6.124 1.86688H6.1242V0.866878ZM6.1242 3.19244L6.1232 4.19244H6.1242V3.19244ZM9.78309 18.6962V19.6962H10.7831V18.6962H9.78309ZM4.26375 16.3706V15.3706H3.26375V16.3706H4.26375ZM8.63581 17.3427L8.79978 16.3563L7.81378 16.1924L7.64942 17.1783L8.63581 17.3427ZM7.38621 24.8388L6.39982 24.6744L6.39975 24.6748L7.38621 24.8388ZM9.68076 25.2217L8.69437 25.0573L8.6943 25.0577L9.68076 25.2217ZM10.0622 27.9984L10.062 28.9984H10.0622V27.9984ZM10.3939 27.9984L10.3939 28.9984L10.394 28.9984L10.3939 27.9984ZM10.3939 25.6729L10.3943 24.6729H10.3939V25.6729ZM10.0637 25.6729L10.0612 26.6729H10.0637V25.6729ZM15.2327 25.4093L14.678 26.2414L15.5101 26.7961L16.0647 25.964L15.2327 25.4093ZM19.1319 19.5598L19.9639 20.1144L19.9641 20.1142L19.1319 19.5598ZM17.197 18.2698L16.3649 17.7151L16.3649 17.7152L17.197 18.2698ZM20.7442 18.6962H19.7442V19.6962H20.7442V18.6962ZM26.8372 16.3706H27.8372V15.3706H26.8372V16.3706ZM20.7442 16.3706V15.3706H19.7442V16.3706H20.7442ZM28 5.13041H29H28ZM25.6744 17.5334H24.6744V18.5334H25.6744V17.5334ZM1.94284 4.29321L2.1396 3.31275L1.1585 3.11587L0.962258 4.09709L1.94284 4.29321ZM0.082387 13.5955L-0.898194 13.3993L-1.09418 14.3793L-0.114371 14.5759L0.082387 13.5955ZM2.36144 14.0528L2.16468 15.0333L3.14577 15.2302L3.34202 14.2489L2.36144 14.0528ZM4.22189 4.75057L5.20247 4.94668L5.39846 3.96674L4.41865 3.77012L4.22189 4.75057ZM20.7442 18.6977L20.7445 19.6977L21.7442 19.6975V18.6977H20.7442ZM20.7442 16.3722H21.7442V15.3722H20.7442V16.3722ZM4.26375 16.3722H5.26375V15.3722H4.26375V16.3722ZM2.36299 14.0544L3.34372 14.2498L3.53885 13.2703L2.55962 13.0739L2.36299 14.0544ZM1.94284 4.29476L0.962308 4.0984L0.766023 5.07853L1.74608 5.27521L1.94284 4.29476ZM4.22189 4.75212L4.02513 5.73257L5.00634 5.92948L5.20249 4.94812L4.22189 4.75212ZM15.2311 25.4109L16.0632 25.9655L16.6173 25.1343L15.7866 24.5793L15.2311 25.4109ZM9.61912 18.5199L10.7664 18.7106L11.0943 16.7376L9.94705 16.5469L9.61912 18.5199ZM11.9168 17.8881C11.9683 17.5783 11.9517 17.261 11.8682 16.9582L9.94025 17.4901C9.94653 17.5129 9.94778 17.5368 9.9439 17.5601L11.9168 17.8881ZM11.8682 16.9582C11.7847 16.6555 11.6362 16.3745 11.4331 16.1349L9.9075 17.4282C9.92279 17.4462 9.93396 17.4673 9.94025 17.4901L11.8682 16.9582ZM11.4331 16.1349C11.2301 15.8954 10.9772 15.7029 10.6923 15.5709L9.85174 17.3857C9.87318 17.3956 9.89221 17.4101 9.9075 17.4282L11.4331 16.1349ZM10.6923 15.5709C10.4073 15.4389 10.0969 15.3706 9.78288 15.3706L9.78329 17.3706C9.80693 17.3706 9.83029 17.3758 9.85174 17.3857L10.6923 15.5709ZM8.78309 16.3706V17.5334H10.7831V16.3706H8.78309ZM25.8372 17.5334V18.6962H27.8372V17.5334H25.8372ZM26.8372 19.6962C27.4108 19.6962 27.9609 19.4683 28.3665 19.0627L26.9523 17.6485C26.9218 17.679 26.8804 17.6962 26.8372 17.6962V19.6962ZM28.3665 19.0627C28.7721 18.6571 29 18.107 29 17.5334H27C27 17.5766 26.9829 17.618 26.9523 17.6485L28.3665 19.0627ZM28 16.5334H26.8372V18.5334H28V16.5334ZM23.7365 -0.133122H6.1242V1.86688H23.7365V-0.133122ZM6.1242 4.19244H23.7365V2.19244H6.1242V4.19244ZM4.26375 19.6962H9.78309V17.6962H4.26375V19.6962ZM10.7831 18.6962V16.3706H8.78309V18.6962H10.7831ZM9.78309 15.3706H4.26375V17.3706H9.78309V15.3706ZM3.26375 16.3706V18.6962H5.26375V16.3706H3.26375ZM7.64942 17.1783L6.39982 24.6744L8.3726 25.0032L9.6222 17.5072L7.64942 17.1783ZM10.6672 25.3861L11.9168 17.8885L9.94397 17.5597L8.69437 25.0573L10.6672 25.3861ZM11.0943 16.7376L8.79978 16.3563L8.47184 18.3292L10.7664 18.7106L11.0943 16.7376ZM10.0622 28.9984H10.3939V26.9984H10.0622V28.9984ZM10.3939 24.6729H10.0637V26.6729H10.3939V24.6729ZM16.0647 25.964L19.9639 20.1144L18.2998 19.0051L14.4006 24.8547L16.0647 25.964ZM16.3649 17.7152L12.4657 23.5648L14.1299 24.6741L18.0291 18.8245L16.3649 17.7152ZM12.7431 24.9515L14.678 26.2414L15.7874 24.5773L13.8525 23.2874L12.7431 24.9515ZM20.7442 19.6962H26.8372V17.6962H20.7442V19.6962ZM27.8372 18.6962V16.3706H25.8372V18.6962H27.8372ZM26.8372 15.3706H20.7442V17.3706H26.8372V15.3706ZM19.7442 16.3706V18.6962H21.7442V16.3706H19.7442ZM29 17.5334V5.13041H27V17.5334H29ZM24.6744 5.13041V17.5334H26.6744V5.13041H24.6744ZM25.6744 18.5334H28V16.5334H25.6744V18.5334ZM0.962258 4.09709L-0.898194 13.3993L1.06297 13.7916L2.92342 4.48932L0.962258 4.09709ZM-0.114371 14.5759L2.16468 15.0333L2.5582 13.0724L0.279145 12.615L-0.114371 14.5759ZM3.34202 14.2489L5.20247 4.94668L3.24131 4.55445L1.38086 13.8567L3.34202 14.2489ZM4.41865 3.77012L2.1396 3.31275L1.74608 5.27366L4.02513 5.73102L4.41865 3.77012ZM19.9641 20.1142C20.0483 19.9877 20.1635 19.883 20.3019 19.8089L19.3576 18.0458C18.9334 18.273 18.5692 18.6007 18.2996 19.0054L19.9641 20.1142ZM20.3019 19.8089C20.438 19.736 20.5901 19.6978 20.7445 19.6977L20.744 17.6977C20.2603 17.6979 19.7841 17.8174 19.3576 18.0458L20.3019 19.8089ZM21.7442 18.6977V16.3722H19.7442V18.6977H21.7442ZM20.7442 15.3722C18.9838 15.3722 17.3412 16.2507 16.3649 17.7151L18.029 18.8245C18.6341 17.9169 19.652 17.3722 20.7442 17.3722V15.3722ZM6.39975 24.6748C6.31136 25.2064 6.33974 25.7527 6.4831 26.2725L8.41113 25.7408C8.34504 25.5011 8.33185 25.2483 8.37267 25.0028L6.39975 24.6748ZM6.4831 26.2725C6.62643 26.7922 6.88119 27.2744 7.22969 27.6857L8.75558 26.3928C8.59479 26.203 8.47725 25.9805 8.41113 25.7408L6.4831 26.2725ZM7.22969 27.6857C7.57819 28.097 8.01207 28.4275 8.50118 28.6542L9.34221 26.8396C9.11655 26.735 8.91637 26.5825 8.75558 26.3928L7.22969 27.6857ZM8.50118 28.6542C8.99029 28.8809 9.52289 28.9984 10.062 28.9984L10.0623 26.9984C9.81361 26.9984 9.56788 26.9442 9.34221 26.8396L8.50118 28.6542ZM10.0662 24.6729C10.1509 24.6731 10.2374 24.6909 10.3216 24.7301L9.47744 26.5432C9.66349 26.6299 9.86414 26.6724 10.0612 26.6729L10.0662 24.6729ZM10.3216 24.7301C10.4021 24.7676 10.4735 24.8221 10.5308 24.8899L9.00342 26.1811C9.13331 26.3348 9.29506 26.4583 9.47744 26.5432L10.3216 24.7301ZM10.5308 24.8899C10.5881 24.9577 10.63 25.0372 10.6536 25.1228L8.72524 25.6534C8.77862 25.8474 8.87354 26.0275 9.00342 26.1811L10.5308 24.8899ZM10.6536 25.1228C10.6771 25.2084 10.6818 25.2981 10.6672 25.3857L8.6943 25.0577C8.66131 25.2562 8.67186 25.4595 8.72524 25.6534L10.6536 25.1228ZM4.26375 15.3722C3.67134 15.3722 3.22788 14.8312 3.34372 14.2498L1.38226 13.859C1.02059 15.6744 2.40657 17.3722 4.26375 17.3722V15.3722ZM2.55962 13.0739L0.279015 12.6165L-0.114241 14.5775L2.16636 15.0348L2.55962 13.0739ZM-0.89829 13.4014C-1.0506 14.1648 -1.03165 14.9542 -0.842777 15.7095L1.09748 15.2244C0.980389 14.7561 0.968616 14.2661 1.06306 13.7926L-0.89829 13.4014ZM-0.842777 15.7095C-0.653909 16.4648 -0.299834 17.1688 0.193923 17.7708L1.74027 16.5024C1.43412 16.1292 1.21459 15.6927 1.09748 15.2244L-0.842777 15.7095ZM0.193923 17.7708C0.687681 18.3727 1.30883 18.8577 2.0126 19.1906L2.86789 17.3827C2.43154 17.1763 2.04641 16.8756 1.74027 16.5024L0.193923 17.7708ZM2.0126 19.1906C2.71637 19.5236 3.48525 19.6962 4.2638 19.6962L4.2637 17.6962C3.78097 17.6962 3.30425 17.5892 2.86789 17.3827L2.0126 19.1906ZM5.26375 18.6962V16.3722H3.26375V18.6962H5.26375ZM6.1244 -0.133122C4.90658 -0.133361 3.72757 0.290182 2.78725 1.0607L4.05489 2.60767C4.63924 2.12883 5.37065 1.86673 6.124 1.86688L6.1244 -0.133122ZM2.78725 1.0607C1.84612 1.8319 1.20123 2.90534 0.962308 4.0984L2.92337 4.49112C3.07151 3.75139 3.47136 3.08583 4.05489 2.60767L2.78725 1.0607ZM1.74608 5.27521L4.02513 5.73257L4.41865 3.77167L2.1396 3.31431L1.74608 5.27521ZM5.20249 4.94812C5.24503 4.73531 5.36004 4.54384 5.52793 4.40633L4.26063 2.85909C3.73476 3.28981 3.37452 3.88956 3.24129 4.55612L5.20249 4.94812ZM5.52793 4.40633C5.69763 4.26733 5.90852 4.19223 6.1232 4.19244L6.1252 2.19244C5.44311 2.19176 4.78468 2.42985 4.26063 2.85909L5.52793 4.40633ZM10.394 28.9984C11.5146 28.9984 12.6191 28.7234 13.609 28.1936L12.6652 26.4303C11.9675 26.8037 11.1874 26.9984 10.3939 26.9984L10.394 28.9984ZM13.609 28.1936C14.598 27.6642 15.441 26.8989 16.0632 25.9655L14.399 24.8562C13.9595 25.5156 13.3639 26.0563 12.6652 26.4303L13.609 28.1936ZM15.7866 24.5793L13.8533 23.2879L12.7423 24.9509L14.6756 26.2424L15.7866 24.5793ZM12.4657 23.5647C12.2376 23.9069 11.9292 24.1875 11.569 24.3802L12.5124 26.1437C13.1655 25.7944 13.7206 25.288 14.1299 24.6741L12.4657 23.5647ZM11.569 24.3802C11.2092 24.5727 10.8059 24.673 10.3943 24.6729L10.3936 26.6729C11.131 26.6732 11.859 26.4933 12.5124 26.1437L11.569 24.3802ZM23.7365 4.19244C24.2539 4.19244 24.6744 4.61294 24.6744 5.13041H26.6744C26.6744 3.50837 25.3585 2.19244 23.7365 2.19244V4.19244ZM29 5.13041C29 3.73444 28.4455 2.39563 27.4583 1.40853L26.0441 2.82274C26.6562 3.43478 27 4.26487 27 5.13041H29ZM27.4583 1.40853C26.4712 0.421427 25.1324 -0.133122 23.7365 -0.133122V1.86688C24.602 1.86688 25.4321 2.21071 26.0441 2.82274L27.4583 1.40853Z" fill="black" mask="url(#path-1-inside-1_43_86)"/>
<path d="M20.6357 17.5334V2.02969" stroke="black" stroke-width="2.2"/>
</svg>
