<svg width="16" height="10" viewBox="0 0 16 10" fill="none" xmlns="http://www.w3.org/2000/svg">
<g clip-path="url(#clip0_28_87)">
<path fill-rule="evenodd" clip-rule="evenodd" d="M7.29306 1.29303C7.48059 1.10556 7.73489 1.00024 8.00006 1.00024C8.26522 1.00024 8.51953 1.10556 8.70706 1.29303L14.3641 6.95003C14.5462 7.13863 14.647 7.39124 14.6447 7.65343C14.6425 7.91563 14.5373 8.16644 14.3519 8.35185C14.1665 8.53726 13.9157 8.64243 13.6535 8.6447C13.3913 8.64698 13.1387 8.54619 12.9501 8.36403L8.00006 3.41403L3.05006 8.36403C2.86146 8.54619 2.60885 8.64698 2.34666 8.6447C2.08446 8.64243 1.83365 8.53726 1.64824 8.35185C1.46283 8.16644 1.35766 7.91563 1.35538 7.65343C1.35311 7.39124 1.4539 7.13863 1.63606 6.95003L7.29306 1.29303Z" fill="black"/>
</g>
<defs>
<clipPath id="clip0_28_87">
<rect width="16" height="10" fill="white"/>
</clipPath>
</defs>
</svg>
