<svg width="19" height="19" viewBox="0 0 19 19" fill="none" xmlns="http://www.w3.org/2000/svg">
<mask id="path-1-inside-1_26_57" fill="white">
<path d="M2 5C2 3.34315 3.34315 2 5 2H14C15.6569 2 17 3.34315 17 5V14C17 15.6569 15.6569 17 14 17H5C3.34315 17 2 15.6569 2 14V5Z"/>
</mask>
<path d="M2 5C2 3.34315 3.34315 2 5 2H14C15.6569 2 17 3.34315 17 5V14C17 15.6569 15.6569 17 14 17H5C3.34315 17 2 15.6569 2 14V5Z" fill="black"/>
<path d="M5 3.5H14V0.5H5V3.5ZM15.5 5V14H18.5V5H15.5ZM14 15.5H5V18.5H14V15.5ZM3.5 14V5H0.5V14H3.5ZM5 15.5C4.17157 15.5 3.5 14.8284 3.5 14H0.5C0.5 16.4853 2.51472 18.5 5 18.5V15.5ZM15.5 14C15.5 14.8284 14.8284 15.5 14 15.5V18.5C16.4853 18.5 18.5 16.4853 18.5 14H15.5ZM14 3.5C14.8284 3.5 15.5 4.17157 15.5 5H18.5C18.5 2.51472 16.4853 0.5 14 0.5V3.5ZM5 0.5C2.51472 0.5 0.5 2.51472 0.5 5H3.5C3.5 4.17157 4.17157 3.5 5 3.5V0.5Z" fill="black" mask="url(#path-1-inside-1_26_57)"/>
<path fill-rule="evenodd" clip-rule="evenodd" d="M14.1478 5.12625C14.3223 5.23659 14.4435 5.40815 14.4846 5.60319C14.5258 5.79822 14.4835 6.00077 14.3672 6.16627L9.09359 13.6664C9.02864 13.7587 8.94292 13.8361 8.8426 13.8932C8.74229 13.9502 8.62987 13.9855 8.51346 13.9964C8.39705 14.0073 8.27953 13.9936 8.16938 13.9562C8.05923 13.9189 7.95918 13.8588 7.87645 13.7804L4.71231 10.7804C4.57258 10.6382 4.49651 10.4501 4.50012 10.2558C4.50374 10.0615 4.58676 9.87614 4.73169 9.73872C4.87662 9.60131 5.07215 9.52259 5.27708 9.51916C5.48201 9.51574 5.68035 9.58786 5.8303 9.72034L8.31205 12.0734L13.0509 5.33325C13.1674 5.16793 13.3484 5.05325 13.5541 5.01443C13.7598 4.97561 13.9734 5.01583 14.1478 5.12625Z" fill="white"/>
</svg>
