<svg width="19" height="19" viewBox="0 0 19 19" fill="none" xmlns="http://www.w3.org/2000/svg">
<path d="M16.823 9.50001H7.04192M3.58946 9.50001H2.17712M3.58946 9.50001C3.58946 9.0423 3.77129 8.60332 4.09494 8.27967C4.4186 7.95601 4.85757 7.77418 5.31529 7.77418C5.77301 7.77418 6.21198 7.95601 6.53564 8.27967C6.8593 8.60332 7.04112 9.0423 7.04112 9.50001C7.04112 9.95773 6.8593 10.3967 6.53564 10.7204C6.21198 11.044 5.77301 11.2258 5.31529 11.2258C4.85757 11.2258 4.4186 11.044 4.09494 10.7204C3.77129 10.3967 3.58946 9.95773 3.58946 9.50001ZM16.823 14.7306H12.2725M12.2725 14.7306C12.2725 15.1884 12.0902 15.6278 11.7665 15.9516C11.4427 16.2753 11.0037 16.4572 10.5458 16.4572C10.0881 16.4572 9.64914 16.2746 9.32548 15.9509C9.00183 15.6272 8.82 15.1883 8.82 14.7306M12.2725 14.7306C12.2725 14.2727 12.0902 13.8341 11.7665 13.5103C11.4427 13.1866 11.0037 13.0047 10.5458 13.0047C10.0881 13.0047 9.64914 13.1866 9.32548 13.5102C9.00183 13.8339 8.82 14.2728 8.82 14.7306M8.82 14.7306H2.17712M16.823 4.26947H14.3648M10.9124 4.26947H2.17712M10.9124 4.26947C10.9124 3.81175 11.0942 3.37278 11.4179 3.04912C11.7415 2.72547 12.1805 2.54364 12.6382 2.54364C12.8648 2.54364 13.0893 2.58828 13.2987 2.67501C13.508 2.76174 13.6983 2.88887 13.8586 3.04912C14.0188 3.20938 14.1459 3.39964 14.2327 3.60903C14.3194 3.81841 14.364 4.04283 14.364 4.26947C14.364 4.49611 14.3194 4.72053 14.2327 4.92992C14.1459 5.13931 14.0188 5.32956 13.8586 5.48982C13.6983 5.65008 13.508 5.7772 13.2987 5.86394C13.0893 5.95067 12.8648 5.99531 12.6382 5.99531C12.1805 5.99531 11.7415 5.81348 11.4179 5.48982C11.0942 5.16617 10.9124 4.72719 10.9124 4.26947Z" stroke="black" stroke-width="1.5" stroke-miterlimit="10" stroke-linecap="round"/>
</svg>
