<svg width="19" height="19" viewBox="0 0 19 19" fill="none" xmlns="http://www.w3.org/2000/svg">
<path d="M16.625 16.625L13.1868 13.1868M13.1868 13.1868C13.775 12.5987 14.2415 11.9005 14.5598 11.132C14.878 10.3636 15.0419 9.54004 15.0419 8.70831C15.0419 7.87659 14.8781 7.053 14.5598 6.28459C14.2415 5.51617 13.775 4.81797 13.1868 4.22986C12.5987 3.64174 11.9005 3.17521 11.1321 2.85693C10.3637 2.53864 9.5401 2.37482 8.70837 2.37482C7.87665 2.37482 7.05307 2.53864 6.28465 2.85693C5.51624 3.17521 4.81804 3.64174 4.22992 4.22986C3.04216 5.41762 2.37488 7.02857 2.37488 8.70831C2.37488 10.3881 3.04216 11.999 4.22992 13.1868C5.41768 14.3745 7.02863 15.0418 8.70837 15.0418C10.3881 15.0418 11.9991 14.3745 13.1868 13.1868Z" stroke="black" stroke-width="1.5" stroke-linecap="round" stroke-linejoin="round"/>
</svg>
