<svg width="16" height="10" viewBox="0 0 16 10" fill="none" xmlns="http://www.w3.org/2000/svg">
<g clip-path="url(#clip0_28_91)">
<path fill-rule="evenodd" clip-rule="evenodd" d="M8.70698 8.70698C8.51945 8.89445 8.26514 8.99976 7.99998 8.99976C7.73481 8.99976 7.4805 8.89445 7.29298 8.70698L1.63598 3.04998C1.54047 2.95773 1.46428 2.84739 1.41188 2.72538C1.35947 2.60338 1.33188 2.47216 1.33073 2.33938C1.32957 2.2066 1.35487 2.07492 1.40516 1.95202C1.45544 1.82913 1.52969 1.71747 1.62358 1.62358C1.71747 1.52969 1.82913 1.45544 1.95202 1.40515C2.07492 1.35487 2.2066 1.32957 2.33938 1.33073C2.47216 1.33188 2.60338 1.35947 2.72538 1.41188C2.84739 1.46428 2.95773 1.54047 3.04998 1.63598L7.99998 6.58598L12.95 1.63598C13.1386 1.45382 13.3912 1.35302 13.6534 1.3553C13.9156 1.35758 14.1664 1.46275 14.3518 1.64816C14.5372 1.83357 14.6424 2.08438 14.6447 2.34658C14.6469 2.60877 14.5461 2.86137 14.364 3.04998L8.70698 8.70698Z" fill="black"/>
</g>
<defs>
<clipPath id="clip0_28_91">
<rect width="16" height="10" fill="white"/>
</clipPath>
</defs>
</svg>
