<svg width="28" height="27" viewBox="0 0 28 27" fill="none" xmlns="http://www.w3.org/2000/svg">
<path fill-rule="evenodd" clip-rule="evenodd" d="M14.6609 0.709539C13.7847 1.17558 13.0379 1.84951 12.4867 2.6715L8.69258 8.3325C8.55478 8.53788 8.36811 8.70625 8.14916 8.82269C8.10061 8.84851 8.05082 8.87159 8 8.89189V27H21.6636C22.71 27.0001 23.7241 26.6396 24.5333 25.98C25.3425 25.3203 25.8968 24.4023 26.1019 23.382L27.9122 14.382C28.0435 13.7292 28.0274 13.0555 27.8651 12.4096C27.7029 11.7636 27.3985 11.1616 26.9739 10.6467C26.5494 10.1319 26.0152 9.71717 25.41 9.4324C24.8047 9.14764 24.1435 8.99996 23.4739 9H19.8834L20.8067 3.4935C20.8788 3.06368 20.8558 2.62341 20.7394 2.2033C20.6231 1.78319 20.416 1.39334 20.1327 1.06085C19.8495 0.728366 19.4967 0.46123 19.0991 0.278026C18.7015 0.0948218 18.2685 -5.30539e-05 17.8302 1.62264e-07H17.5089C16.5153 -0.000229576 15.537 0.243497 14.6609 0.709539ZM6 27V24H4.52582C4.12571 24 3.74199 23.842 3.45907 23.5607C3.17615 23.2794 3.01721 22.8978 3.01721 22.5V12H6V9H1.50861C1.1085 9 0.724779 9.15804 0.44186 9.43934C0.158942 9.72065 0 10.1022 0 10.5V22.5C0 23.6935 0.476826 24.8381 1.32558 25.682C2.17434 26.5259 3.3255 27 4.52582 27H6Z" fill="black"/>
<rect x="3" y="10" width="3" height="14" fill="black"/>
</svg>
