<svg width="34" height="30" viewBox="0 0 34 30" fill="none" xmlns="http://www.w3.org/2000/svg">
<path d="M21.689 7.65733H15.1291V4.0787C15.1291 2.36831 13.4423 1.39333 12.2727 2.41845L2.69905 10.7568C2.47817 10.965 2.30231 11.2155 2.18214 11.4931C2.06197 11.7706 2 12.0695 2 12.3716C2 12.6736 2.06197 12.9725 2.18214 13.2501C2.30231 13.5277 2.47817 13.7782 2.69905 13.9863L12.2727 22.3247C13.4423 23.3573 15.1291 22.3748 15.1291 20.6663V17.0858H18.8776C19.6217 17.0914 20.3573 17.2422 21.0426 17.5295C21.7279 17.8168 22.3493 18.235 22.8714 18.7603C23.3935 19.2856 23.8061 19.9076 24.0856 20.5909C24.3651 21.2742 24.5061 22.0053 24.5004 22.7426V28C26.9011 27.2939 28.9674 25.7595 30.3253 23.6746C31.6831 21.5896 32.2428 19.0919 31.9031 16.6335C31.5633 14.1751 30.3465 11.9184 28.473 10.272C26.5995 8.62548 24.1929 7.69798 21.689 7.65733Z" stroke="black" stroke-width="2.5" stroke-linecap="round" stroke-linejoin="round"/>
<path d="M2.88458 14.0462C1.90934 13.2461 1.90935 11.7539 2.88458 10.9538L11.9814 3.49034C13.2868 2.41934 15.25 3.34802 15.25 5.03654L15.25 19.9635C15.25 21.652 13.2868 22.5807 11.9814 21.5097L2.88458 14.0462Z" fill="black"/>
<rect x="14" y="8" width="12" height="9" fill="black"/>
<rect x="22" y="9" width="8" height="12" rx="4" fill="black"/>
<rect x="24" y="11" width="8" height="14" rx="4" fill="black"/>
<rect x="25" y="18" width="3" height="9" rx="1.5" fill="black"/>
</svg>
