<svg width="121" height="40" viewBox="0 0 121 40" fill="none" xmlns="http://www.w3.org/2000/svg">
<path d="M11.19 31L11.07 28.39V23.17C11.07 22.07 10.94 21.15 10.68 20.41C10.44 19.67 10.06 19.11 9.54 18.73C9.04 18.35 8.37 18.16 7.53 18.16C6.75 18.16 6.07 18.32 5.49 18.64C4.93 18.96 4.46 19.46 4.08 20.14L1.56 19.18C1.92 18.5 2.37 17.9 2.91 17.38C3.45 16.84 4.1 16.42 4.86 16.12C5.62 15.8 6.51 15.64 7.53 15.64C8.95 15.64 10.13 15.92 11.07 16.48C12.01 17.04 12.71 17.85 13.17 18.91C13.65 19.97 13.88 21.28 13.86 22.84L13.83 31H11.19ZM6.78 31.36C5 31.36 3.61 30.96 2.61 30.16C1.63 29.34 1.14 28.21 1.14 26.77C1.14 25.23 1.65 24.06 2.67 23.26C3.71 22.44 5.15 22.03 6.99 22.03H11.16V24.28H7.77C6.39 24.28 5.42 24.5 4.86 24.94C4.3 25.36 4.02 25.95 4.02 26.71C4.02 27.41 4.28 27.96 4.8 28.36C5.34 28.74 6.08 28.93 7.02 28.93C7.84 28.93 8.55 28.76 9.15 28.42C9.75 28.06 10.22 27.56 10.56 26.92C10.9 26.28 11.07 25.55 11.07 24.73H12.06C12.06 26.77 11.62 28.39 10.74 29.59C9.88 30.77 8.56 31.36 6.78 31.36ZM17.4487 31V10H20.2988V31H17.4487ZM24.2456 31V10H27.0956V31H24.2456ZM40.1067 22.93C40.1067 21.31 40.4167 19.99 41.0367 18.97C41.6567 17.95 42.4567 17.19 43.4367 16.69C44.4167 16.19 45.4467 15.94 46.5267 15.94V18.64C45.6267 18.64 44.7667 18.78 43.9467 19.06C43.1467 19.32 42.4867 19.76 41.9667 20.38C41.4667 20.98 41.2167 21.8 41.2167 22.84L40.1067 22.93ZM38.3667 31V16H41.2167V31H38.3667ZM55.4557 31.36C53.9957 31.36 52.7057 31.03 51.5857 30.37C50.4657 29.69 49.5857 28.76 48.9457 27.58C48.3057 26.4 47.9857 25.04 47.9857 23.5C47.9857 21.96 48.3057 20.6 48.9457 19.42C49.5857 18.24 50.4657 17.32 51.5857 16.66C52.7257 15.98 54.0257 15.64 55.4857 15.64C56.8657 15.64 58.0757 15.99 59.1157 16.69C60.1557 17.37 60.9657 18.35 61.5457 19.63C62.1457 20.89 62.4457 22.38 62.4457 24.1H50.3257L50.8657 23.65C50.8657 24.71 51.0757 25.63 51.4957 26.41C51.9157 27.19 52.4857 27.79 53.2057 28.21C53.9257 28.61 54.7457 28.81 55.6657 28.81C56.6657 28.81 57.4957 28.58 58.1557 28.12C58.8357 27.64 59.3657 27.04 59.7457 26.32L62.2057 27.46C61.8057 28.24 61.2857 28.93 60.6457 29.53C60.0057 30.11 59.2457 30.56 58.3657 30.88C57.5057 31.2 56.5357 31.36 55.4557 31.36ZM51.0457 22.3L50.4757 21.85H59.9557L59.4157 22.3C59.4157 21.42 59.2357 20.67 58.8757 20.05C58.5157 19.41 58.0357 18.93 57.4357 18.61C56.8357 18.27 56.1657 18.1 55.4257 18.1C54.7057 18.1 54.0057 18.27 53.3257 18.61C52.6657 18.93 52.1157 19.4 51.6757 20.02C51.2557 20.64 51.0457 21.4 51.0457 22.3ZM74.4713 31L74.3513 28.39V23.17C74.3513 22.07 74.2213 21.15 73.9613 20.41C73.7213 19.67 73.3413 19.11 72.8213 18.73C72.3213 18.35 71.6513 18.16 70.8113 18.16C70.0313 18.16 69.3513 18.32 68.7713 18.64C68.2113 18.96 67.7413 19.46 67.3613 20.14L64.8413 19.18C65.2013 18.5 65.6513 17.9 66.1913 17.38C66.7313 16.84 67.3813 16.42 68.1413 16.12C68.9013 15.8 69.7913 15.64 70.8113 15.64C72.2313 15.64 73.4113 15.92 74.3513 16.48C75.2913 17.04 75.9913 17.85 76.4513 18.91C76.9313 19.97 77.1613 21.28 77.1413 22.84L77.1113 31H74.4713ZM70.0613 31.36C68.2813 31.36 66.8913 30.96 65.8913 30.16C64.9113 29.34 64.4213 28.21 64.4213 26.77C64.4213 25.23 64.9313 24.06 65.9513 23.26C66.9913 22.44 68.4313 22.03 70.2713 22.03H74.4413V24.28H71.0513C69.6713 24.28 68.7013 24.5 68.1413 24.94C67.5813 25.36 67.3013 25.95 67.3013 26.71C67.3013 27.41 67.5613 27.96 68.0813 28.36C68.6213 28.74 69.3613 28.93 70.3013 28.93C71.1213 28.93 71.8313 28.76 72.4313 28.42C73.0313 28.06 73.5013 27.56 73.8413 26.92C74.1813 26.28 74.3513 25.55 74.3513 24.73H75.3413C75.3413 26.77 74.9013 28.39 74.0213 29.59C73.1613 30.77 71.8413 31.36 70.0613 31.36ZM87.57 31.36C86.07 31.36 84.74 31.03 83.58 30.37C82.42 29.69 81.51 28.76 80.85 27.58C80.21 26.4 79.89 25.04 79.89 23.5C79.89 21.96 80.21 20.6 80.85 19.42C81.51 18.24 82.41 17.32 83.55 16.66C84.71 15.98 86.03 15.64 87.51 15.64C88.97 15.64 90.28 15.98 91.44 16.66C92.62 17.34 93.5 18.31 94.08 19.57L91.5 20.65C91.12 19.91 90.57 19.33 89.85 18.91C89.15 18.49 88.34 18.28 87.42 18.28C86.52 18.28 85.72 18.5 85.02 18.94C84.32 19.38 83.77 20 83.37 20.8C82.97 21.58 82.77 22.48 82.77 23.5C82.77 24.52 82.97 25.42 83.37 26.2C83.77 26.98 84.33 27.6 85.05 28.06C85.77 28.5 86.58 28.72 87.48 28.72C88.4 28.72 89.22 28.49 89.94 28.03C90.66 27.55 91.2 26.91 91.56 26.11L94.17 27.16C93.59 28.48 92.71 29.51 91.53 30.25C90.37 30.99 89.05 31.36 87.57 31.36ZM102.78 31.36C101.28 31.36 100.12 30.98 99.2998 30.22C98.4798 29.44 98.0698 28.33 98.0698 26.89V11.32H100.92V26.47C100.92 27.21 101.1 27.78 101.46 28.18C101.84 28.56 102.38 28.75 103.08 28.75C103.28 28.75 103.5 28.71 103.74 28.63C103.98 28.55 104.27 28.39 104.61 28.15L105.69 30.37C105.17 30.71 104.67 30.96 104.19 31.12C103.73 31.28 103.26 31.36 102.78 31.36ZM95.5198 18.46V16H105.18V18.46H95.5198ZM113.873 31.36C112.813 31.36 111.863 31.2 111.023 30.88C110.203 30.56 109.503 30.13 108.923 29.59C108.363 29.05 107.943 28.44 107.663 27.76L110.123 26.68C110.443 27.3 110.923 27.81 111.563 28.21C112.203 28.61 112.913 28.81 113.693 28.81C114.553 28.81 115.263 28.65 115.823 28.33C116.383 28.01 116.663 27.56 116.663 26.98C116.663 26.42 116.453 25.98 116.033 25.66C115.613 25.34 115.003 25.08 114.203 24.88L112.793 24.52C111.393 24.14 110.303 23.57 109.523 22.81C108.763 22.05 108.383 21.19 108.383 20.23C108.383 18.77 108.853 17.64 109.793 16.84C110.733 16.04 112.123 15.64 113.963 15.64C114.863 15.64 115.683 15.77 116.423 16.03C117.183 16.29 117.823 16.66 118.343 17.14C118.883 17.62 119.263 18.19 119.483 18.85L117.083 19.93C116.843 19.33 116.433 18.89 115.853 18.61C115.273 18.31 114.593 18.16 113.813 18.16C113.013 18.16 112.383 18.34 111.923 18.7C111.463 19.04 111.233 19.52 111.233 20.14C111.233 20.48 111.423 20.81 111.803 21.13C112.203 21.43 112.783 21.68 113.543 21.88L115.163 22.27C116.143 22.51 116.953 22.88 117.593 23.38C118.233 23.86 118.713 24.41 119.033 25.03C119.353 25.63 119.513 26.26 119.513 26.92C119.513 27.82 119.263 28.61 118.763 29.29C118.283 29.95 117.613 30.46 116.753 30.82C115.913 31.18 114.953 31.36 113.873 31.36Z" fill="black"/>
</svg>
