<svg width="123" height="40" viewBox="0 0 123 40" fill="none" xmlns="http://www.w3.org/2000/svg">
<path d="M50.96 31L50.84 28.21V10H53.66V31H50.96ZM45.92 31.36C44.56 31.36 43.37 31.03 42.35 30.37C41.35 29.71 40.56 28.79 39.98 27.61C39.42 26.43 39.14 25.06 39.14 23.5C39.14 21.92 39.42 20.55 39.98 19.39C40.56 18.21 41.35 17.29 42.35 16.63C43.37 15.97 44.56 15.64 45.92 15.64C47.18 15.64 48.27 15.97 49.19 16.63C50.13 17.29 50.85 18.21 51.35 19.39C51.85 20.55 52.1 21.92 52.1 23.5C52.1 25.06 51.85 26.43 51.35 27.61C50.85 28.79 50.13 29.71 49.19 30.37C48.27 31.03 47.18 31.36 45.92 31.36ZM46.58 28.78C47.42 28.78 48.16 28.56 48.8 28.12C49.44 27.66 49.94 27.04 50.3 26.26C50.66 25.46 50.84 24.54 50.84 23.5C50.84 22.46 50.66 21.55 50.3 20.77C49.94 19.97 49.44 19.35 48.8 18.91C48.16 18.45 47.41 18.22 46.55 18.22C45.67 18.22 44.89 18.45 44.21 18.91C43.53 19.35 43 19.97 42.62 20.77C42.24 21.55 42.05 22.46 42.05 23.5C42.05 24.54 42.24 25.46 42.62 26.26C43.02 27.04 43.56 27.66 44.24 28.12C44.92 28.56 45.7 28.78 46.58 28.78ZM64.2467 31.36C62.7867 31.36 61.4967 31.03 60.3767 30.37C59.2567 29.69 58.3767 28.76 57.7367 27.58C57.0967 26.4 56.7767 25.04 56.7767 23.5C56.7767 21.96 57.0967 20.6 57.7367 19.42C58.3767 18.24 59.2567 17.32 60.3767 16.66C61.5167 15.98 62.8167 15.64 64.2767 15.64C65.6567 15.64 66.8667 15.99 67.9067 16.69C68.9467 17.37 69.7567 18.35 70.3367 19.63C70.9367 20.89 71.2367 22.38 71.2367 24.1H59.1167L59.6567 23.65C59.6567 24.71 59.8667 25.63 60.2867 26.41C60.7067 27.19 61.2767 27.79 61.9967 28.21C62.7167 28.61 63.5367 28.81 64.4567 28.81C65.4567 28.81 66.2867 28.58 66.9467 28.12C67.6267 27.64 68.1567 27.04 68.5367 26.32L70.9967 27.46C70.5967 28.24 70.0767 28.93 69.4367 29.53C68.7967 30.11 68.0367 30.56 67.1567 30.88C66.2967 31.2 65.3267 31.36 64.2467 31.36ZM59.8367 22.3L59.2667 21.85H68.7467L68.2067 22.3C68.2067 21.42 68.0267 20.67 67.6667 20.05C67.3067 19.41 66.8267 18.93 66.2267 18.61C65.6267 18.27 64.9567 18.1 64.2167 18.1C63.4967 18.1 62.7967 18.27 62.1167 18.61C61.4567 18.93 60.9067 19.4 60.4667 20.02C60.0467 20.64 59.8367 21.4 59.8367 22.3ZM74.0523 31V10H76.9023V31H74.0523ZM87.4791 31.36C86.0191 31.36 84.7291 31.03 83.6091 30.37C82.4891 29.69 81.6091 28.76 80.9691 27.58C80.3291 26.4 80.0091 25.04 80.0091 23.5C80.0091 21.96 80.3291 20.6 80.9691 19.42C81.6091 18.24 82.4891 17.32 83.6091 16.66C84.7491 15.98 86.0491 15.64 87.5091 15.64C88.8891 15.64 90.0991 15.99 91.1391 16.69C92.1791 17.37 92.9891 18.35 93.5691 19.63C94.1691 20.89 94.4691 22.38 94.4691 24.1H82.3491L82.8891 23.65C82.8891 24.71 83.0991 25.63 83.5191 26.41C83.9391 27.19 84.5091 27.79 85.2291 28.21C85.9491 28.61 86.7691 28.81 87.6891 28.81C88.6891 28.81 89.5191 28.58 90.1791 28.12C90.8591 27.64 91.3891 27.04 91.7691 26.32L94.2291 27.46C93.8291 28.24 93.3091 28.93 92.6691 29.53C92.0291 30.11 91.2691 30.56 90.3891 30.88C89.5291 31.2 88.5591 31.36 87.4791 31.36ZM83.0691 22.3L82.4991 21.85H91.9791L91.4391 22.3C91.4391 21.42 91.2591 20.67 90.8991 20.05C90.5391 19.41 90.0591 18.93 89.4591 18.61C88.8591 18.27 88.1891 18.1 87.4491 18.1C86.7291 18.1 86.0291 18.27 85.3491 18.61C84.6891 18.93 84.1391 19.4 83.6991 20.02C83.2791 20.64 83.0691 21.4 83.0691 22.3ZM103.075 31.36C101.575 31.36 100.415 30.98 99.5947 30.22C98.7747 29.44 98.3647 28.33 98.3647 26.89V11.32H101.215V26.47C101.215 27.21 101.395 27.78 101.755 28.18C102.135 28.56 102.675 28.75 103.375 28.75C103.575 28.75 103.795 28.71 104.035 28.63C104.275 28.55 104.565 28.39 104.905 28.15L105.985 30.37C105.465 30.71 104.965 30.96 104.485 31.12C104.025 31.28 103.555 31.36 103.075 31.36ZM95.8147 18.46V16H105.475V18.46H95.8147ZM115.311 31.36C113.851 31.36 112.561 31.03 111.441 30.37C110.321 29.69 109.441 28.76 108.801 27.58C108.161 26.4 107.841 25.04 107.841 23.5C107.841 21.96 108.161 20.6 108.801 19.42C109.441 18.24 110.321 17.32 111.441 16.66C112.581 15.98 113.881 15.64 115.341 15.64C116.721 15.64 117.931 15.99 118.971 16.69C120.011 17.37 120.821 18.35 121.401 19.63C122.001 20.89 122.301 22.38 122.301 24.1H110.181L110.721 23.65C110.721 24.71 110.931 25.63 111.351 26.41C111.771 27.19 112.341 27.79 113.061 28.21C113.781 28.61 114.601 28.81 115.521 28.81C116.521 28.81 117.351 28.58 118.011 28.12C118.691 27.64 119.221 27.04 119.601 26.32L122.061 27.46C121.661 28.24 121.141 28.93 120.501 29.53C119.861 30.11 119.101 30.56 118.221 30.88C117.361 31.2 116.391 31.36 115.311 31.36ZM110.901 22.3L110.331 21.85H119.811L119.271 22.3C119.271 21.42 119.091 20.67 118.731 20.05C118.371 19.41 117.891 18.93 117.291 18.61C116.691 18.27 116.021 18.1 115.281 18.1C114.561 18.1 113.861 18.27 113.181 18.61C112.521 18.93 111.971 19.4 111.531 20.02C111.111 20.64 110.901 21.4 110.901 22.3Z" fill="black"/>
<path d="M2 13H26M11 19V28M17 19V28M3.5 13L5 31C5 31.7956 5.31607 32.5587 5.87868 33.1213C6.44129 33.6839 7.20435 34 8 34H20C20.7956 34 21.5587 33.6839 22.1213 33.1213C22.6839 32.5587 23 31.7956 23 31L24.5 13M9.5 13V8.5C9.5 8.10218 9.65804 7.72064 9.93934 7.43934C10.2206 7.15804 10.6022 7 11 7H17C17.3978 7 17.7794 7.15804 18.0607 7.43934C18.342 7.72064 18.5 8.10218 18.5 8.5V13" stroke="black" stroke-width="2.5" stroke-linecap="round" stroke-linejoin="round"/>
</svg>
