<svg width="124" height="40" viewBox="0 0 124 40" fill="none" xmlns="http://www.w3.org/2000/svg">
<path d="M52.96 31L52.84 28.21V10H55.66V31H52.96ZM47.92 31.36C46.56 31.36 45.37 31.03 44.35 30.37C43.35 29.71 42.56 28.79 41.98 27.61C41.42 26.43 41.14 25.06 41.14 23.5C41.14 21.92 41.42 20.55 41.98 19.39C42.56 18.21 43.35 17.29 44.35 16.63C45.37 15.97 46.56 15.64 47.92 15.64C49.18 15.64 50.27 15.97 51.19 16.63C52.13 17.29 52.85 18.21 53.35 19.39C53.85 20.55 54.1 21.92 54.1 23.5C54.1 25.06 53.85 26.43 53.35 27.61C52.85 28.79 52.13 29.71 51.19 30.37C50.27 31.03 49.18 31.36 47.92 31.36ZM48.58 28.78C49.42 28.78 50.16 28.56 50.8 28.12C51.44 27.66 51.94 27.04 52.3 26.26C52.66 25.46 52.84 24.54 52.84 23.5C52.84 22.46 52.66 21.55 52.3 20.77C51.94 19.97 51.44 19.35 50.8 18.91C50.16 18.45 49.41 18.22 48.55 18.22C47.67 18.22 46.89 18.45 46.21 18.91C45.53 19.35 45 19.97 44.62 20.77C44.24 21.55 44.05 22.46 44.05 23.5C44.05 24.54 44.24 25.46 44.62 26.26C45.02 27.04 45.56 27.66 46.24 28.12C46.92 28.56 47.7 28.78 48.58 28.78ZM59.7967 31V16H62.6467V31H59.7967ZM61.2367 12.82C60.7767 12.82 60.3767 12.65 60.0367 12.31C59.6967 11.95 59.5267 11.54 59.5267 11.08C59.5267 10.6 59.6967 10.2 60.0367 9.88C60.3767 9.54 60.7767 9.37 61.2367 9.37C61.7167 9.37 62.1167 9.54 62.4367 9.88C62.7767 10.2 62.9467 10.6 62.9467 11.08C62.9467 11.54 62.7767 11.95 62.4367 12.31C62.1167 12.65 61.7167 12.82 61.2367 12.82ZM72.1938 31.36C71.1338 31.36 70.1838 31.2 69.3438 30.88C68.5238 30.56 67.8238 30.13 67.2438 29.59C66.6838 29.05 66.2638 28.44 65.9838 27.76L68.4438 26.68C68.7638 27.3 69.2438 27.81 69.8838 28.21C70.5238 28.61 71.2338 28.81 72.0138 28.81C72.8738 28.81 73.5838 28.65 74.1438 28.33C74.7038 28.01 74.9838 27.56 74.9838 26.98C74.9838 26.42 74.7738 25.98 74.3538 25.66C73.9338 25.34 73.3238 25.08 72.5238 24.88L71.1138 24.52C69.7138 24.14 68.6238 23.57 67.8438 22.81C67.0838 22.05 66.7038 21.19 66.7038 20.23C66.7038 18.77 67.1738 17.64 68.1138 16.84C69.0538 16.04 70.4438 15.64 72.2838 15.64C73.1838 15.64 74.0038 15.77 74.7438 16.03C75.5038 16.29 76.1438 16.66 76.6638 17.14C77.2038 17.62 77.5838 18.19 77.8038 18.85L75.4038 19.93C75.1638 19.33 74.7538 18.89 74.1738 18.61C73.5938 18.31 72.9138 18.16 72.1338 18.16C71.3338 18.16 70.7038 18.34 70.2438 18.7C69.7838 19.04 69.5538 19.52 69.5538 20.14C69.5538 20.48 69.7438 20.81 70.1238 21.13C70.5238 21.43 71.1038 21.68 71.8638 21.88L73.4838 22.27C74.4638 22.51 75.2738 22.88 75.9138 23.38C76.5538 23.86 77.0338 24.41 77.3538 25.03C77.6738 25.63 77.8338 26.26 77.8338 26.92C77.8338 27.82 77.5838 28.61 77.0838 29.29C76.6038 29.95 75.9338 30.46 75.0738 30.82C74.2338 31.18 73.2738 31.36 72.1938 31.36ZM80.7984 31V10H83.6484V31H80.7984ZM87.7752 31V16H90.6252V31H87.7752ZM89.2152 12.82C88.7552 12.82 88.3552 12.65 88.0152 12.31C87.6752 11.95 87.5052 11.54 87.5052 11.08C87.5052 10.6 87.6752 10.2 88.0152 9.88C88.3552 9.54 88.7552 9.37 89.2152 9.37C89.6952 9.37 90.0952 9.54 90.4152 9.88C90.7552 10.2 90.9252 10.6 90.9252 11.08C90.9252 11.54 90.7552 11.95 90.4152 12.31C90.0952 12.65 89.6952 12.82 89.2152 12.82ZM97.5623 26.47L95.7923 24.52L103.682 16H107.162L97.5623 26.47ZM94.8023 31V10H97.6523V31H94.8023ZM104.312 31L98.7923 22.78L100.652 20.8L107.732 31H104.312ZM115.993 31.36C114.533 31.36 113.243 31.03 112.123 30.37C111.003 29.69 110.123 28.76 109.483 27.58C108.843 26.4 108.523 25.04 108.523 23.5C108.523 21.96 108.843 20.6 109.483 19.42C110.123 18.24 111.003 17.32 112.123 16.66C113.263 15.98 114.563 15.64 116.023 15.64C117.403 15.64 118.613 15.99 119.653 16.69C120.693 17.37 121.503 18.35 122.083 19.63C122.683 20.89 122.983 22.38 122.983 24.1H110.863L111.403 23.65C111.403 24.71 111.613 25.63 112.033 26.41C112.453 27.19 113.023 27.79 113.743 28.21C114.463 28.61 115.283 28.81 116.203 28.81C117.203 28.81 118.033 28.58 118.693 28.12C119.373 27.64 119.903 27.04 120.283 26.32L122.743 27.46C122.343 28.24 121.823 28.93 121.183 29.53C120.543 30.11 119.783 30.56 118.903 30.88C118.043 31.2 117.073 31.36 115.993 31.36ZM111.583 22.3L111.013 21.85H120.493L119.953 22.3C119.953 21.42 119.773 20.67 119.413 20.05C119.053 19.41 118.573 18.93 117.973 18.61C117.373 18.27 116.703 18.1 115.963 18.1C115.243 18.1 114.543 18.27 113.863 18.61C113.203 18.93 112.653 19.4 112.213 20.02C111.793 20.64 111.583 21.4 111.583 22.3Z" fill="black"/>
<path d="M10.7831 26.5334L11.9304 26.7241C11.9581 26.5575 11.9491 26.3869 11.9042 26.2242C11.8593 26.0614 11.7795 25.9104 11.6703 25.7816C11.5611 25.6527 11.4252 25.5493 11.272 25.4783C11.1188 25.4073 10.9519 25.3706 10.7831 25.3706V26.5334ZM27.8372 26.5334V27.6962C28.1456 27.6962 28.4414 27.5737 28.6594 27.3556C28.8775 27.1376 29 26.8418 29 26.5334H27.8372ZM24.7365 9.86688L7.1242 9.86688V12.1924L24.7365 12.1924V9.86688ZM5.26375 27.6962L10.7831 27.6962V25.3706L5.26375 25.3706V27.6962ZM9.63581 26.3427L8.38621 33.8388L10.6808 34.2217L11.9304 26.7241L9.63581 26.3427ZM11.0622 36.9984H11.3939V34.6729H11.0637L11.0622 36.9984ZM16.2327 34.4093L20.1319 28.5598L18.197 27.2698L14.2978 33.1194L16.2327 34.4093ZM21.7442 27.6962H27.8372V25.3706H21.7442V27.6962ZM29 26.5334L29 14.1304H26.6744L26.6744 26.5334H29ZM2.94284 13.2932L1.08239 22.5955L3.36144 23.0528L5.22189 13.7506L2.94284 13.2932ZM20.1319 28.5598C20.3087 28.2942 20.5485 28.078 20.8298 27.9273C21.111 27.7767 21.4252 27.6978 21.7442 27.6977V25.3722C20.3179 25.3722 18.9877 26.0838 18.197 27.2698L20.1319 28.5598ZM8.38621 33.8388C8.32161 34.2274 8.34239 34.6269 8.44711 35.0066C8.55184 35.3863 8.73799 35.7387 8.99264 36.0392C9.24728 36.3398 9.56431 36.5813 9.9217 36.7469C10.2791 36.9125 10.6682 36.9984 11.0622 36.9984L11.0637 34.6729C11.0075 34.6727 10.9505 34.6604 10.8995 34.6367C10.8486 34.613 10.8034 34.5784 10.7671 34.5355C10.7308 34.4926 10.7043 34.4423 10.6894 34.3881C10.6745 34.3339 10.6715 34.2772 10.6808 34.2217L8.38621 33.8388ZM5.26375 25.3722C4.03895 25.3722 3.12423 24.2528 3.36299 23.0544L1.08239 22.597C0.959011 23.2155 0.974367 23.8551 1.12735 24.4669C1.28034 25.0787 1.56714 25.649 1.96709 26.1366C2.36705 26.6242 2.87018 27.017 3.44025 27.2867C4.01031 27.5564 4.63311 27.6962 5.26375 27.6962V25.3722ZM7.1242 9.86688C6.13862 9.86668 5.1834 10.2095 4.42107 10.8342C3.65874 11.4589 3.13637 12.3284 2.94284 13.2948L5.22189 13.7521C5.30977 13.3124 5.5474 12.9168 5.89428 12.6327C6.24115 12.3486 6.67582 12.192 7.1242 12.1924V9.86688ZM11.3939 36.9984C12.351 36.9984 13.2933 36.7636 14.1371 36.3119C14.981 35.8602 15.7002 35.2072 16.2311 34.4109L14.2978 33.1194C13.9791 33.5975 13.5473 33.9909 13.0407 34.2619C12.5341 34.533 11.9685 34.6731 11.3939 34.6729V36.9984ZM24.7365 12.1924C25.8062 12.1924 26.6744 13.0607 26.6744 14.1304H29C29 12.9997 28.5508 11.9152 27.7512 11.1156C26.9517 10.3161 25.8672 9.86688 24.7365 9.86688V12.1924Z" fill="black"/>
<path d="M21.6357 26.5334L21.6357 11.0297" stroke="black" stroke-width="2.2"/>
</svg>
