<svg width="84" height="40" viewBox="0 0 84 40" fill="none" xmlns="http://www.w3.org/2000/svg">
<path d="M40.98 31V10H43.83V31H40.98ZM47.9569 31V16H50.8069V31H47.9569ZM49.3969 12.82C48.9369 12.82 48.5369 12.65 48.1969 12.31C47.8569 11.95 47.6869 11.54 47.6869 11.08C47.6869 10.6 47.8569 10.2 48.1969 9.88C48.5369 9.54 48.9369 9.37 49.3969 9.37C49.8769 9.37 50.2769 9.54 50.5969 9.88C50.9369 10.2 51.1069 10.6 51.1069 11.08C51.1069 11.54 50.9369 11.95 50.5969 12.31C50.2769 12.65 49.8769 12.82 49.3969 12.82ZM57.7439 26.47L55.9739 24.52L63.8639 16H67.3439L57.7439 26.47ZM54.9839 31V10H57.8339V31H54.9839ZM64.4939 31L58.9739 22.78L60.8339 20.8L67.9139 31H64.4939ZM76.1745 31.36C74.7145 31.36 73.4245 31.03 72.3045 30.37C71.1845 29.69 70.3045 28.76 69.6645 27.58C69.0245 26.4 68.7045 25.04 68.7045 23.5C68.7045 21.96 69.0245 20.6 69.6645 19.42C70.3045 18.24 71.1845 17.32 72.3045 16.66C73.4445 15.98 74.7445 15.64 76.2045 15.64C77.5845 15.64 78.7945 15.99 79.8345 16.69C80.8745 17.37 81.6845 18.35 82.2645 19.63C82.8645 20.89 83.1645 22.38 83.1645 24.1H71.0445L71.5845 23.65C71.5845 24.71 71.7945 25.63 72.2145 26.41C72.6345 27.19 73.2045 27.79 73.9245 28.21C74.6445 28.61 75.4645 28.81 76.3845 28.81C77.3845 28.81 78.2145 28.58 78.8745 28.12C79.5545 27.64 80.0845 27.04 80.4645 26.32L82.9245 27.46C82.5245 28.24 82.0045 28.93 81.3645 29.53C80.7245 30.11 79.9645 30.56 79.0845 30.88C78.2245 31.2 77.2545 31.36 76.1745 31.36ZM71.7645 22.3L71.1945 21.85H80.6745L80.1345 22.3C80.1345 21.42 79.9545 20.67 79.5945 20.05C79.2345 19.41 78.7545 18.93 78.1545 18.61C77.5545 18.27 76.8845 18.1 76.1445 18.1C75.4245 18.1 74.7245 18.27 74.0445 18.61C73.3845 18.93 72.8345 19.4 72.3945 20.02C71.9745 20.64 71.7645 21.4 71.7645 22.3Z" fill="black"/>
<path d="M19.2169 15.4666L18.0696 15.2759C18.0419 15.4425 18.0509 15.6131 18.0958 15.7758C18.1407 15.9386 18.2205 16.0896 18.3297 16.2184C18.4389 16.3473 18.5748 16.4507 18.728 16.5217C18.8812 16.5927 19.0481 16.6294 19.2169 16.6294V15.4666ZM2.16278 15.4666V14.3038C1.85439 14.3038 1.55863 14.4263 1.34057 14.6444C1.12251 14.8624 1 15.1582 1 15.4666H2.16278ZM5.26353 32.1331H22.8758V29.8076H5.26353V32.1331ZM24.7362 14.3038H19.2169V16.6294H24.7362V14.3038ZM20.3642 15.6573L21.6138 8.16122L19.3192 7.77827L18.0696 15.2759L20.3642 15.6573ZM18.9378 5.00155H18.6061V7.32711H18.9363L18.9378 5.00155ZM13.7673 7.59068L9.86815 13.4402L11.803 14.7302L15.7022 8.88059L13.7673 7.59068ZM8.25576 14.3038H2.16278V16.6294H8.25576V14.3038ZM1 15.4666V27.8696H3.32556V15.4666H1ZM27.0572 28.7068L28.9176 19.4045L26.6386 18.9472L24.7781 28.2494L27.0572 28.7068ZM9.86815 13.4402C9.69125 13.7058 9.45152 13.922 9.17024 14.0727C8.88896 14.2233 8.57484 14.3022 8.25576 14.3023V16.6278C9.6821 16.6278 11.0123 15.9162 11.803 14.7302L9.86815 13.4402ZM21.6138 8.16122C21.6784 7.77264 21.6576 7.37311 21.5529 6.99338C21.4482 6.61365 21.262 6.26128 21.0074 5.96075C20.7527 5.66022 20.4357 5.41875 20.0783 5.2531C19.7209 5.08746 19.3318 5.00162 18.9378 5.00155L18.9363 7.32711C18.9925 7.32725 19.0495 7.33961 19.1005 7.36333C19.1514 7.38705 19.1966 7.42156 19.2329 7.46448C19.2692 7.5074 19.2957 7.55769 19.3106 7.61187C19.3255 7.66606 19.3285 7.72284 19.3192 7.77827L21.6138 8.16122ZM24.7362 16.6278C25.961 16.6278 26.8758 17.7472 26.637 18.9456L28.9176 19.403C29.041 18.7845 29.0256 18.1449 28.8726 17.5331C28.7197 16.9213 28.4329 16.351 28.0329 15.8634C27.633 15.3758 27.1298 14.983 26.5598 14.7133C25.9897 14.4436 25.3669 14.3038 24.7362 14.3038V16.6278ZM22.8758 32.1331C23.8614 32.1333 24.8166 31.7905 25.5789 31.1658C26.3413 30.5411 26.8636 29.6716 27.0572 28.7052L24.7781 28.2479C24.6902 28.6876 24.4526 29.0832 24.1057 29.3673C23.7588 29.6514 23.3242 29.808 22.8758 29.8076V32.1331ZM18.6061 5.00155C17.649 5.00162 16.7067 5.23642 15.8629 5.68809C15.019 6.13975 14.2998 6.79275 13.7689 7.58913L15.7022 8.88059C16.0209 8.40255 16.4527 8.00906 16.9593 7.73805C17.4659 7.46704 18.0315 7.3269 18.6061 7.32711V5.00155ZM5.26353 29.8076C4.19377 29.8076 3.32556 28.9393 3.32556 27.8696H1C1 29.0003 1.44919 30.0848 2.24876 30.8844C3.04833 31.6839 4.13277 32.1331 5.26353 32.1331V29.8076Z" fill="black"/>
<path d="M8.36432 15.4666V30.9703" stroke="black" stroke-width="2.2"/>
</svg>
