<svg width="111" height="40" viewBox="0 0 111 40" fill="none" xmlns="http://www.w3.org/2000/svg">
<path d="M0.98 31V16H3.65L3.83 18.76V31H0.98ZM11.36 31V23.32H14.21V31H11.36ZM11.36 23.32C11.36 21.96 11.2 20.93 10.88 20.23C10.58 19.51 10.15 19.01 9.59 18.73C9.05 18.45 8.42 18.3 7.7 18.28C6.48 18.28 5.53 18.71 4.85 19.57C4.17 20.43 3.83 21.64 3.83 23.2H2.6C2.6 21.62 2.83 20.27 3.29 19.15C3.77 18.01 4.44 17.14 5.3 16.54C6.18 15.94 7.22 15.64 8.42 15.64C9.6 15.64 10.62 15.88 11.48 16.36C12.36 16.84 13.03 17.59 13.49 18.61C13.97 19.61 14.21 20.93 14.21 22.57V23.32H11.36ZM24.5764 31.36C23.0764 31.36 21.7564 31.03 20.6164 30.37C19.4764 29.69 18.5764 28.76 17.9164 27.58C17.2764 26.4 16.9564 25.04 16.9564 23.5C16.9564 21.96 17.2764 20.6 17.9164 19.42C18.5564 18.24 19.4464 17.32 20.5864 16.66C21.7264 15.98 23.0364 15.64 24.5164 15.64C25.9964 15.64 27.3064 15.98 28.4464 16.66C29.5864 17.32 30.4764 18.24 31.1164 19.42C31.7564 20.6 32.0764 21.96 32.0764 23.5C32.0764 25.04 31.7564 26.4 31.1164 27.58C30.4764 28.76 29.5864 29.69 28.4464 30.37C27.3264 31.03 26.0364 31.36 24.5764 31.36ZM24.5764 28.75C25.4764 28.75 26.2764 28.53 26.9764 28.09C27.6764 27.63 28.2164 27.01 28.5964 26.23C28.9964 25.45 29.1964 24.54 29.1964 23.5C29.1964 22.46 28.9964 21.55 28.5964 20.77C28.2164 19.99 27.6664 19.38 26.9464 18.94C26.2264 18.48 25.4164 18.25 24.5164 18.25C23.5964 18.25 22.7864 18.48 22.0864 18.94C21.3864 19.38 20.8364 19.99 20.4364 20.77C20.0364 21.55 19.8364 22.46 19.8364 23.5C19.8364 24.54 20.0364 25.45 20.4364 26.23C20.8364 27.01 21.3964 27.63 22.1164 28.09C22.8364 28.53 23.6564 28.75 24.5764 28.75ZM44.263 22.93C44.263 21.31 44.573 19.99 45.193 18.97C45.813 17.95 46.613 17.19 47.593 16.69C48.573 16.19 49.603 15.94 50.683 15.94V18.64C49.783 18.64 48.923 18.78 48.103 19.06C47.303 19.32 46.643 19.76 46.123 20.38C45.623 20.98 45.373 21.8 45.373 22.84L44.263 22.93ZM42.523 31V16H45.373V31H42.523ZM59.612 31.36C58.152 31.36 56.862 31.03 55.742 30.37C54.622 29.69 53.742 28.76 53.102 27.58C52.462 26.4 52.142 25.04 52.142 23.5C52.142 21.96 52.462 20.6 53.102 19.42C53.742 18.24 54.622 17.32 55.742 16.66C56.882 15.98 58.182 15.64 59.642 15.64C61.022 15.64 62.232 15.99 63.272 16.69C64.312 17.37 65.122 18.35 65.702 19.63C66.302 20.89 66.602 22.38 66.602 24.1H54.482L55.022 23.65C55.022 24.71 55.232 25.63 55.652 26.41C56.072 27.19 56.642 27.79 57.362 28.21C58.082 28.61 58.902 28.81 59.822 28.81C60.822 28.81 61.652 28.58 62.312 28.12C62.992 27.64 63.522 27.04 63.902 26.32L66.362 27.46C65.962 28.24 65.442 28.93 64.802 29.53C64.162 30.11 63.402 30.56 62.522 30.88C61.662 31.2 60.692 31.36 59.612 31.36ZM55.202 22.3L54.632 21.85H64.112L63.572 22.3C63.572 21.42 63.392 20.67 63.032 20.05C62.672 19.41 62.192 18.93 61.592 18.61C60.992 18.27 60.322 18.1 59.582 18.1C58.862 18.1 58.162 18.27 57.482 18.61C56.822 18.93 56.272 19.4 55.832 20.02C55.412 20.64 55.202 21.4 55.202 22.3ZM78.6275 31L78.5075 28.39V23.17C78.5075 22.07 78.3775 21.15 78.1175 20.41C77.8775 19.67 77.4975 19.11 76.9775 18.73C76.4775 18.35 75.8075 18.16 74.9675 18.16C74.1875 18.16 73.5075 18.32 72.9275 18.64C72.3675 18.96 71.8975 19.46 71.5175 20.14L68.9975 19.18C69.3575 18.5 69.8075 17.9 70.3475 17.38C70.8875 16.84 71.5375 16.42 72.2975 16.12C73.0575 15.8 73.9475 15.64 74.9675 15.64C76.3875 15.64 77.5675 15.92 78.5075 16.48C79.4475 17.04 80.1475 17.85 80.6075 18.91C81.0875 19.97 81.3175 21.28 81.2975 22.84L81.2675 31H78.6275ZM74.2175 31.36C72.4375 31.36 71.0475 30.96 70.0475 30.16C69.0675 29.34 68.5775 28.21 68.5775 26.77C68.5775 25.23 69.0875 24.06 70.1075 23.26C71.1475 22.44 72.5875 22.03 74.4275 22.03H78.5975V24.28H75.2075C73.8275 24.28 72.8575 24.5 72.2975 24.94C71.7375 25.36 71.4575 25.95 71.4575 26.71C71.4575 27.41 71.7175 27.96 72.2375 28.36C72.7775 28.74 73.5175 28.93 74.4575 28.93C75.2775 28.93 75.9875 28.76 76.5875 28.42C77.1875 28.06 77.6575 27.56 77.9975 26.92C78.3375 26.28 78.5075 25.55 78.5075 24.73H79.4975C79.4975 26.77 79.0575 28.39 78.1775 29.59C77.3175 30.77 75.9975 31.36 74.2175 31.36ZM91.7262 31.36C90.2263 31.36 88.8963 31.03 87.7363 30.37C86.5763 29.69 85.6663 28.76 85.0063 27.58C84.3663 26.4 84.0463 25.04 84.0463 23.5C84.0463 21.96 84.3663 20.6 85.0063 19.42C85.6663 18.24 86.5663 17.32 87.7063 16.66C88.8663 15.98 90.1863 15.64 91.6663 15.64C93.1263 15.64 94.4363 15.98 95.5963 16.66C96.7763 17.34 97.6563 18.31 98.2363 19.57L95.6563 20.65C95.2763 19.91 94.7263 19.33 94.0063 18.91C93.3063 18.49 92.4963 18.28 91.5763 18.28C90.6763 18.28 89.8763 18.5 89.1763 18.94C88.4763 19.38 87.9263 20 87.5263 20.8C87.1263 21.58 86.9263 22.48 86.9263 23.5C86.9263 24.52 87.1263 25.42 87.5263 26.2C87.9263 26.98 88.4863 27.6 89.2063 28.06C89.9263 28.5 90.7363 28.72 91.6363 28.72C92.5563 28.72 93.3763 28.49 94.0963 28.03C94.8163 27.55 95.3563 26.91 95.7163 26.11L98.3262 27.16C97.7463 28.48 96.8663 29.51 95.6863 30.25C94.5263 30.99 93.2063 31.36 91.7262 31.36ZM106.936 31.36C105.436 31.36 104.276 30.98 103.456 30.22C102.636 29.44 102.226 28.33 102.226 26.89V11.32H105.076V26.47C105.076 27.21 105.256 27.78 105.616 28.18C105.996 28.56 106.536 28.75 107.236 28.75C107.436 28.75 107.656 28.71 107.896 28.63C108.136 28.55 108.426 28.39 108.766 28.15L109.846 30.37C109.326 30.71 108.826 30.96 108.346 31.12C107.886 31.28 107.416 31.36 106.936 31.36ZM99.676 18.46V16H109.336V18.46H99.676Z" fill="black"/>
</svg>
