<svg width="125" height="40" viewBox="0 0 125 40" fill="none" xmlns="http://www.w3.org/2000/svg">
<path d="M46.76 31.36C45.26 31.36 43.94 31.03 42.8 30.37C41.66 29.69 40.76 28.76 40.1 27.58C39.46 26.4 39.14 25.04 39.14 23.5C39.14 21.96 39.46 20.6 40.1 19.42C40.74 18.24 41.63 17.32 42.77 16.66C43.91 15.98 45.22 15.64 46.7 15.64C48.18 15.64 49.49 15.98 50.63 16.66C51.77 17.32 52.66 18.24 53.3 19.42C53.94 20.6 54.26 21.96 54.26 23.5C54.26 25.04 53.94 26.4 53.3 27.58C52.66 28.76 51.77 29.69 50.63 30.37C49.51 31.03 48.22 31.36 46.76 31.36ZM46.76 28.75C47.66 28.75 48.46 28.53 49.16 28.09C49.86 27.63 50.4 27.01 50.78 26.23C51.18 25.45 51.38 24.54 51.38 23.5C51.38 22.46 51.18 21.55 50.78 20.77C50.4 19.99 49.85 19.38 49.13 18.94C48.41 18.48 47.6 18.25 46.7 18.25C45.78 18.25 44.97 18.48 44.27 18.94C43.57 19.38 43.02 19.99 42.62 20.77C42.22 21.55 42.02 22.46 42.02 23.5C42.02 24.54 42.22 25.45 42.62 26.23C43.02 27.01 43.58 27.63 44.3 28.09C45.02 28.53 45.84 28.75 46.76 28.75ZM63.1723 31.36C61.6723 31.36 60.5123 30.98 59.6923 30.22C58.8723 29.44 58.4623 28.33 58.4623 26.89V11.32H61.3123V26.47C61.3123 27.21 61.4923 27.78 61.8523 28.18C62.2323 28.56 62.7723 28.75 63.4723 28.75C63.6723 28.75 63.8923 28.71 64.1323 28.63C64.3723 28.55 64.6623 28.39 65.0023 28.15L66.0823 30.37C65.5623 30.71 65.0623 30.96 64.5823 31.12C64.1223 31.28 63.6523 31.36 63.1723 31.36ZM55.9123 18.46V16H65.5723V18.46H55.9123ZM68.926 31V10H71.746V31H68.926ZM79.306 31V23.32H82.126V31H79.306ZM79.306 23.32C79.306 21.96 79.146 20.93 78.826 20.23C78.506 19.51 78.066 19.01 77.506 18.73C76.966 18.45 76.346 18.3 75.646 18.28C74.406 18.28 73.446 18.71 72.766 19.57C72.086 20.43 71.746 21.64 71.746 23.2H70.546C70.546 21.62 70.776 20.27 71.236 19.15C71.716 18.01 72.386 17.14 73.246 16.54C74.126 15.94 75.166 15.64 76.366 15.64C77.546 15.64 78.566 15.88 79.426 16.36C80.286 16.84 80.956 17.59 81.436 18.61C81.916 19.61 82.146 20.93 82.126 22.57V23.32H79.306ZM92.3424 31.36C90.8824 31.36 89.5924 31.03 88.4724 30.37C87.3524 29.69 86.4724 28.76 85.8324 27.58C85.1924 26.4 84.8724 25.04 84.8724 23.5C84.8724 21.96 85.1924 20.6 85.8324 19.42C86.4724 18.24 87.3524 17.32 88.4724 16.66C89.6124 15.98 90.9124 15.64 92.3724 15.64C93.7524 15.64 94.9624 15.99 96.0024 16.69C97.0424 17.37 97.8524 18.35 98.4324 19.63C99.0324 20.89 99.3324 22.38 99.3324 24.1H87.2124L87.7524 23.65C87.7524 24.71 87.9624 25.63 88.3824 26.41C88.8024 27.19 89.3724 27.79 90.0924 28.21C90.8124 28.61 91.6324 28.81 92.5524 28.81C93.5524 28.81 94.3824 28.58 95.0424 28.12C95.7224 27.64 96.2524 27.04 96.6324 26.32L99.0924 27.46C98.6924 28.24 98.1724 28.93 97.5324 29.53C96.8924 30.11 96.1324 30.56 95.2524 30.88C94.3924 31.2 93.4224 31.36 92.3424 31.36ZM87.9324 22.3L87.3624 21.85H96.8424L96.3024 22.3C96.3024 21.42 96.1224 20.67 95.7624 20.05C95.4024 19.41 94.9224 18.93 94.3224 18.61C93.7224 18.27 93.0524 18.1 92.3124 18.1C91.5924 18.1 90.8924 18.27 90.2124 18.61C89.5524 18.93 89.0024 19.4 88.5624 20.02C88.1424 20.64 87.9324 21.4 87.9324 22.3ZM103.888 22.93C103.888 21.31 104.198 19.99 104.818 18.97C105.438 17.95 106.238 17.19 107.218 16.69C108.198 16.19 109.228 15.94 110.308 15.94V18.64C109.408 18.64 108.548 18.78 107.728 19.06C106.928 19.32 106.268 19.76 105.748 20.38C105.248 20.98 104.998 21.8 104.998 22.84L103.888 22.93ZM102.148 31V16H104.998V31H102.148ZM117.977 31.36C116.917 31.36 115.967 31.2 115.127 30.88C114.307 30.56 113.607 30.13 113.027 29.59C112.467 29.05 112.047 28.44 111.767 27.76L114.227 26.68C114.547 27.3 115.027 27.81 115.667 28.21C116.307 28.61 117.017 28.81 117.797 28.81C118.657 28.81 119.367 28.65 119.927 28.33C120.487 28.01 120.767 27.56 120.767 26.98C120.767 26.42 120.557 25.98 120.137 25.66C119.717 25.34 119.107 25.08 118.307 24.88L116.897 24.52C115.497 24.14 114.407 23.57 113.627 22.81C112.867 22.05 112.487 21.19 112.487 20.23C112.487 18.77 112.957 17.64 113.897 16.84C114.837 16.04 116.227 15.64 118.067 15.64C118.967 15.64 119.787 15.77 120.527 16.03C121.287 16.29 121.927 16.66 122.447 17.14C122.987 17.62 123.367 18.19 123.587 18.85L121.187 19.93C120.947 19.33 120.537 18.89 119.957 18.61C119.377 18.31 118.697 18.16 117.917 18.16C117.117 18.16 116.487 18.34 116.027 18.7C115.567 19.04 115.337 19.52 115.337 20.14C115.337 20.48 115.527 20.81 115.907 21.13C116.307 21.43 116.887 21.68 117.647 21.88L119.267 22.27C120.247 22.51 121.057 22.88 121.697 23.38C122.337 23.86 122.817 24.41 123.137 25.03C123.457 25.63 123.617 26.26 123.617 26.92C123.617 27.82 123.367 28.61 122.867 29.29C122.387 29.95 121.717 30.46 120.857 30.82C120.017 31.18 119.057 31.36 117.977 31.36Z" fill="black"/>
<circle cx="14" cy="22" r="11.8" stroke="black" stroke-width="2.4"/>
<circle cx="14" cy="22" r="2" fill="black"/>
<circle cx="8" cy="22" r="2" fill="black"/>
<circle cx="20" cy="22" r="2" fill="black"/>
</svg>
