<svg width="110" height="40" viewBox="0 0 110 40" fill="none" xmlns="http://www.w3.org/2000/svg">
<path d="M45.72 22.93C45.72 21.31 46.03 19.99 46.65 18.97C47.27 17.95 48.07 17.19 49.05 16.69C50.03 16.19 51.06 15.94 52.14 15.94V18.64C51.24 18.64 50.38 18.78 49.56 19.06C48.76 19.32 48.1 19.76 47.58 20.38C47.08 20.98 46.83 21.8 46.83 22.84L45.72 22.93ZM43.98 31V16H46.83V31H43.98ZM61.069 31.36C59.609 31.36 58.319 31.03 57.199 30.37C56.079 29.69 55.199 28.76 54.559 27.58C53.919 26.4 53.599 25.04 53.599 23.5C53.599 21.96 53.919 20.6 54.559 19.42C55.199 18.24 56.079 17.32 57.199 16.66C58.339 15.98 59.639 15.64 61.099 15.64C62.479 15.64 63.689 15.99 64.729 16.69C65.769 17.37 66.579 18.35 67.159 19.63C67.759 20.89 68.059 22.38 68.059 24.1H55.939L56.479 23.65C56.479 24.71 56.689 25.63 57.109 26.41C57.529 27.19 58.099 27.79 58.819 28.21C59.539 28.61 60.359 28.81 61.279 28.81C62.279 28.81 63.109 28.58 63.769 28.12C64.449 27.64 64.979 27.04 65.359 26.32L67.819 27.46C67.419 28.24 66.899 28.93 66.259 29.53C65.619 30.11 64.859 30.56 63.979 30.88C63.119 31.2 62.149 31.36 61.069 31.36ZM56.659 22.3L56.089 21.85H65.569L65.029 22.3C65.029 21.42 64.849 20.67 64.489 20.05C64.129 19.41 63.649 18.93 63.049 18.61C62.449 18.27 61.779 18.1 61.039 18.1C60.319 18.1 59.619 18.27 58.939 18.61C58.279 18.93 57.729 19.4 57.289 20.02C56.869 20.64 56.659 21.4 56.659 22.3ZM71.0245 37V16H73.6945L73.8745 18.76V37H71.0245ZM78.7945 31.36C77.5345 31.36 76.4345 31.03 75.4945 30.37C74.5745 29.71 73.8645 28.79 73.3645 27.61C72.8645 26.43 72.6145 25.06 72.6145 23.5C72.6145 21.92 72.8645 20.55 73.3645 19.39C73.8645 18.21 74.5745 17.29 75.4945 16.63C76.4345 15.97 77.5345 15.64 78.7945 15.64C80.1345 15.64 81.3145 15.97 82.3345 16.63C83.3545 17.29 84.1445 18.21 84.7045 19.39C85.2845 20.55 85.5745 21.92 85.5745 23.5C85.5745 25.06 85.2845 26.43 84.7045 27.61C84.1445 28.79 83.3545 29.71 82.3345 30.37C81.3145 31.03 80.1345 31.36 78.7945 31.36ZM78.1045 28.78C79.0045 28.78 79.7945 28.56 80.4745 28.12C81.1545 27.66 81.6845 27.04 82.0645 26.26C82.4645 25.46 82.6645 24.54 82.6645 23.5C82.6645 22.46 82.4745 21.55 82.0945 20.77C81.7145 19.97 81.1845 19.35 80.5045 18.91C79.8245 18.45 79.0345 18.22 78.1345 18.22C77.3145 18.22 76.5745 18.45 75.9145 18.91C75.2745 19.35 74.7745 19.97 74.4145 20.77C74.0545 21.57 73.8745 22.48 73.8745 23.5C73.8745 24.54 74.0545 25.46 74.4145 26.26C74.7745 27.04 75.2745 27.66 75.9145 28.12C76.5545 28.56 77.2845 28.78 78.1045 28.78ZM88.687 31V10H91.537V31H88.687ZM97.3139 37.36C96.8739 37.36 96.3839 37.28 95.8439 37.12C95.3239 36.96 94.7839 36.75 94.2239 36.49L95.2739 34.15C95.7139 34.35 96.0939 34.5 96.4139 34.6C96.7539 34.7 97.0239 34.75 97.2239 34.75C97.7239 34.75 98.1439 34.61 98.4839 34.33C98.8439 34.05 99.1339 33.66 99.3539 33.16L101.094 29.05L106.434 16H109.494L102.384 32.86C102.004 33.78 101.604 34.58 101.184 35.26C100.764 35.94 100.244 36.46 99.6239 36.82C99.0239 37.18 98.2539 37.36 97.3139 37.36ZM100.314 31L93.7439 16H96.7739L102.204 29.02L103.074 31H100.314Z" fill="black"/>
<path d="M21.0327 16.4397H14.6915V12.9987C14.6915 11.3541 13.0609 10.4167 11.9303 11.4024L2.67575 19.42C2.46223 19.6202 2.29223 19.861 2.17607 20.1279C2.0599 20.3948 2 20.6822 2 20.9727C2 21.2631 2.0599 21.5505 2.17607 21.8174C2.29223 22.0843 2.46223 22.3252 2.67575 22.5253L11.9303 30.543C13.0609 31.5358 14.6915 30.5912 14.6915 28.9484V25.5056H18.315C19.0343 25.511 19.7454 25.6559 20.4078 25.9322C21.0703 26.2084 21.671 26.6106 22.1757 27.1157C22.6804 27.6207 23.0793 28.2188 23.3495 28.8758C23.6196 29.5328 23.7559 30.2359 23.7504 30.9448V36C26.0711 35.321 28.0685 33.8457 29.3811 31.8409C30.6937 29.8362 31.2347 27.4345 30.9063 25.0707C30.5779 22.7068 29.4017 20.537 27.5906 18.9538C25.7795 17.3707 23.4532 16.4788 21.0327 16.4397Z" stroke="black" stroke-width="2.5" stroke-linecap="round" stroke-linejoin="round"/>
</svg>
