<svg width="28" height="28" viewBox="0 0 28 28" fill="none" xmlns="http://www.w3.org/2000/svg">
<mask id="path-1-inside-1_42_71" fill="white">
<path d="M18.2169 10.4666L17.0696 10.2759C17.0419 10.4425 17.0509 10.6131 17.0958 10.7758C17.1407 10.9386 17.2205 11.0896 17.3297 11.2184C17.4389 11.3473 17.5748 11.4507 17.728 11.5217C17.8812 11.5927 18.0481 11.6294 18.2169 11.6294V10.4666ZM1.16278 10.4666V9.3038C0.854393 9.3038 0.558635 9.42631 0.340571 9.64438C0.122507 9.86244 0 10.1582 0 10.4666H1.16278ZM4.26353 27.1331H21.8758V24.8076H4.26353V27.1331ZM23.7362 9.3038H18.2169V11.6294H23.7362V9.3038ZM19.3642 10.6573L20.6138 3.16122L18.3192 2.77827L17.0696 10.2759L19.3642 10.6573ZM17.9378 0.00155026H17.6061V2.32711H17.9363L17.9378 0.00155026ZM12.7673 2.59068L8.86815 8.44024L10.803 9.73016L14.7022 3.88059L12.7673 2.59068ZM7.25576 9.3038H1.16278V11.6294H7.25576V9.3038ZM0 10.4666V22.8696H2.32556V10.4666H0ZM26.0572 23.7068L27.9176 14.4045L25.6386 13.9472L23.7781 23.2494L26.0572 23.7068ZM8.86815 8.44024C8.69125 8.7058 8.45152 8.92202 8.17024 9.07266C7.88896 9.22331 7.57484 9.30217 7.25576 9.30225V11.6278C8.6821 11.6278 10.0123 10.9162 10.803 9.73016L8.86815 8.44024ZM20.6138 3.16122C20.6784 2.77264 20.6576 2.37311 20.5529 1.99338C20.4482 1.61365 20.262 1.26128 20.0074 0.960753C19.7527 0.660224 19.4357 0.418747 19.0783 0.253103C18.7209 0.0874584 18.3318 0.00161905 17.9378 0.00155026L17.9363 2.32711C17.9925 2.32725 18.0495 2.33961 18.1005 2.36333C18.1514 2.38705 18.1966 2.42156 18.2329 2.46448C18.2692 2.5074 18.2957 2.55769 18.3106 2.61187C18.3255 2.66606 18.3285 2.72284 18.3192 2.77827L20.6138 3.16122ZM23.7362 11.6278C24.961 11.6278 25.8758 12.7472 25.637 13.9456L27.9176 14.403C28.041 13.7845 28.0256 13.1449 27.8726 12.5331C27.7197 11.9213 27.4329 11.351 27.0329 10.8634C26.633 10.3758 26.1298 9.98302 25.5598 9.71333C24.9897 9.44364 24.3669 9.30377 23.7362 9.3038V11.6278ZM21.8758 27.1331C22.8614 27.1333 23.8166 26.7905 24.5789 26.1658C25.3413 25.5411 25.8636 24.6716 26.0572 23.7052L23.7781 23.2479C23.6902 23.6876 23.4526 24.0832 23.1057 24.3673C22.7588 24.6514 22.3242 24.808 21.8758 24.8076V27.1331ZM17.6061 0.00155026C16.649 0.00161979 15.7067 0.236425 14.8629 0.688088C14.019 1.13975 13.2998 1.79275 12.7689 2.58913L14.7022 3.88059C15.0209 3.40255 15.4527 3.00906 15.9593 2.73805C16.4659 2.46704 17.0315 2.3269 17.6061 2.32711V0.00155026ZM4.26353 24.8076C3.19377 24.8076 2.32556 23.9393 2.32556 22.8696H0C0 24.0003 0.449192 25.0848 1.24876 25.8844C2.04833 26.6839 3.13277 27.1331 4.26353 27.1331V24.8076Z"/>
</mask>
<path d="M18.2169 10.4666L17.0696 10.2759C17.0419 10.4425 17.0509 10.6131 17.0958 10.7758C17.1407 10.9386 17.2205 11.0896 17.3297 11.2184C17.4389 11.3473 17.5748 11.4507 17.728 11.5217C17.8812 11.5927 18.0481 11.6294 18.2169 11.6294V10.4666ZM1.16278 10.4666V9.3038C0.854393 9.3038 0.558635 9.42631 0.340571 9.64438C0.122507 9.86244 0 10.1582 0 10.4666H1.16278ZM4.26353 27.1331H21.8758V24.8076H4.26353V27.1331ZM23.7362 9.3038H18.2169V11.6294H23.7362V9.3038ZM19.3642 10.6573L20.6138 3.16122L18.3192 2.77827L17.0696 10.2759L19.3642 10.6573ZM17.9378 0.00155026H17.6061V2.32711H17.9363L17.9378 0.00155026ZM12.7673 2.59068L8.86815 8.44024L10.803 9.73016L14.7022 3.88059L12.7673 2.59068ZM7.25576 9.3038H1.16278V11.6294H7.25576V9.3038ZM0 10.4666V22.8696H2.32556V10.4666H0ZM26.0572 23.7068L27.9176 14.4045L25.6386 13.9472L23.7781 23.2494L26.0572 23.7068ZM8.86815 8.44024C8.69125 8.7058 8.45152 8.92202 8.17024 9.07266C7.88896 9.22331 7.57484 9.30217 7.25576 9.30225V11.6278C8.6821 11.6278 10.0123 10.9162 10.803 9.73016L8.86815 8.44024ZM20.6138 3.16122C20.6784 2.77264 20.6576 2.37311 20.5529 1.99338C20.4482 1.61365 20.262 1.26128 20.0074 0.960753C19.7527 0.660224 19.4357 0.418747 19.0783 0.253103C18.7209 0.0874584 18.3318 0.00161905 17.9378 0.00155026L17.9363 2.32711C17.9925 2.32725 18.0495 2.33961 18.1005 2.36333C18.1514 2.38705 18.1966 2.42156 18.2329 2.46448C18.2692 2.5074 18.2957 2.55769 18.3106 2.61187C18.3255 2.66606 18.3285 2.72284 18.3192 2.77827L20.6138 3.16122ZM23.7362 11.6278C24.961 11.6278 25.8758 12.7472 25.637 13.9456L27.9176 14.403C28.041 13.7845 28.0256 13.1449 27.8726 12.5331C27.7197 11.9213 27.4329 11.351 27.0329 10.8634C26.633 10.3758 26.1298 9.98302 25.5598 9.71333C24.9897 9.44364 24.3669 9.30377 23.7362 9.3038V11.6278ZM21.8758 27.1331C22.8614 27.1333 23.8166 26.7905 24.5789 26.1658C25.3413 25.5411 25.8636 24.6716 26.0572 23.7052L23.7781 23.2479C23.6902 23.6876 23.4526 24.0832 23.1057 24.3673C22.7588 24.6514 22.3242 24.808 21.8758 24.8076V27.1331ZM17.6061 0.00155026C16.649 0.00161979 15.7067 0.236425 14.8629 0.688088C14.019 1.13975 13.2998 1.79275 12.7689 2.58913L14.7022 3.88059C15.0209 3.40255 15.4527 3.00906 15.9593 2.73805C16.4659 2.46704 17.0315 2.3269 17.6061 2.32711V0.00155026ZM4.26353 24.8076C3.19377 24.8076 2.32556 23.9393 2.32556 22.8696H0C0 24.0003 0.449192 25.0848 1.24876 25.8844C2.04833 26.6839 3.13277 27.1331 4.26353 27.1331V24.8076Z" fill="#64686C"/>
<path d="M26.68 14.6654L27.8196 14.8933L28.0157 13.9127L26.8761 13.6848L26.68 14.6654ZM22.3758 27.1331V24.8076H21.3758V27.1331H22.3758ZM3.76353 24.8076V27.1331H4.76353V24.8076H3.76353ZM20.6961 2.66804L18.4015 2.28509L18.2369 3.27145L20.5315 3.65439L20.6961 2.66804ZM17.1061 0.00155026V2.32711H18.1061V0.00155026H17.1061ZM18.4363 2.32745L18.4378 0.00188341L17.4378 0.00121711L17.4363 2.32678L18.4363 2.32745ZM8.5908 8.85627L10.5257 10.1462L11.0804 9.31413L9.1455 8.02422L8.5908 8.85627ZM0 23.3696H2.32556V22.3696H0V23.3696ZM18.2169 10.4666H19.2169V9.61908L18.3809 9.48012L18.2169 10.4666ZM17.0696 10.2759L16.0832 10.1115L16.0832 10.1119L17.0696 10.2759ZM1.16278 10.4666V11.4666H2.16278V10.4666H1.16278ZM27.9176 14.403L27.721 15.3835L28.7025 15.5803L28.8983 14.5986L27.9176 14.403ZM21.8758 27.1331L21.876 26.1331H21.8758V27.1331ZM21.8758 24.8076L21.8768 23.8076H21.8758V24.8076ZM18.2169 9.3038V8.3038H17.2169V9.3038H18.2169ZM23.7362 11.6294V12.6294H24.7362V11.6294H23.7362ZM19.3642 10.6573L19.2002 11.6437L20.1862 11.8076L20.3506 10.8217L19.3642 10.6573ZM20.6138 3.16122L21.6002 3.32565L21.6003 3.32522L20.6138 3.16122ZM18.3192 2.77827L19.3056 2.94267L19.3057 2.94228L18.3192 2.77827ZM17.9378 0.00155026L17.938 -0.99845H17.9378V0.00155026ZM17.6061 0.00155026L17.6061 -0.99845L17.606 -0.99845L17.6061 0.00155026ZM17.6061 2.32711L17.6057 3.32711H17.6061V2.32711ZM17.9363 2.32711L17.9388 1.32711H17.9363V2.32711ZM12.7673 2.59068L13.322 1.75863L12.4899 1.20389L11.9353 2.03603L12.7673 2.59068ZM8.86815 8.44024L8.03606 7.8856L8.0359 7.88584L8.86815 8.44024ZM10.803 9.73016L11.6351 10.2849L11.6351 10.2848L10.803 9.73016ZM7.25576 9.3038H8.25576V8.3038H7.25576V9.3038ZM1.16278 11.6294H0.162782V12.6294H1.16278V11.6294ZM7.25576 11.6294V12.6294H8.25576V11.6294H7.25576ZM0 22.8696H-1H0ZM2.32556 10.4666H3.32556V9.46659H2.32556V10.4666ZM26.0572 23.7068L25.8604 24.6872L26.8415 24.8841L27.0377 23.9029L26.0572 23.7068ZM27.9176 14.4045L28.8982 14.6007L29.0942 13.6207L28.1144 13.4241L27.9176 14.4045ZM25.6386 13.9472L25.8353 12.9667L24.8542 12.7698L24.658 13.7511L25.6386 13.9472ZM23.7781 23.2494L22.7975 23.0533L22.6015 24.0333L23.5814 24.2299L23.7781 23.2494ZM7.25576 9.30225L7.25551 8.30225L6.25576 8.3025V9.30225H7.25576ZM7.25576 11.6278H6.25576V12.6278H7.25576V11.6278ZM23.7362 11.6278H22.7362V12.6278H23.7362V11.6278ZM25.637 13.9456L24.6563 13.7502L24.4611 14.7297L25.4404 14.9261L25.637 13.9456ZM26.0572 23.7052L27.0377 23.9016L27.234 22.9215L26.2539 22.7248L26.0572 23.7052ZM23.7781 23.2479L23.9749 22.2674L22.9937 22.0705L22.7975 23.0519L23.7781 23.2479ZM12.7689 2.58913L11.9368 2.03446L11.3827 2.86573L12.2134 3.42066L12.7689 2.58913ZM18.3809 9.48012L17.2336 9.28942L16.9057 11.2624L18.0529 11.4531L18.3809 9.48012ZM16.0832 10.1119C16.0317 10.4217 16.0483 10.739 16.1318 11.0418L18.0598 10.5099C18.0535 10.4871 18.0522 10.4632 18.0561 10.4399L16.0832 10.1119ZM16.1318 11.0418C16.2153 11.3445 16.3638 11.6255 16.5669 11.8651L18.0925 10.5718C18.0772 10.5538 18.066 10.5327 18.0598 10.5099L16.1318 11.0418ZM16.5669 11.8651C16.7699 12.1046 17.0228 12.2971 17.3077 12.4291L18.1483 10.6143C18.1268 10.6044 18.1078 10.5899 18.0925 10.5718L16.5669 11.8651ZM17.3077 12.4291C17.5927 12.5611 17.9031 12.6294 18.2171 12.6294L18.2167 10.6294C18.1931 10.6294 18.1697 10.6242 18.1483 10.6143L17.3077 12.4291ZM19.2169 11.6294V10.4666H17.2169V11.6294H19.2169ZM2.16278 10.4666V9.3038H0.162782V10.4666H2.16278ZM1.16278 8.3038C0.589175 8.3038 0.0390634 8.53167 -0.366536 8.93727L1.04768 10.3515C1.07821 10.321 1.11961 10.3038 1.16278 10.3038V8.3038ZM-0.366536 8.93727C-0.772136 9.34287 -1 9.89298 -1 10.4666H1C1 10.4234 1.01715 10.382 1.04768 10.3515L-0.366536 8.93727ZM0 11.4666H1.16278V9.46659H0V11.4666ZM4.26353 28.1331H21.8758V26.1331H4.26353V28.1331ZM21.8758 23.8076H4.26353V25.8076H21.8758V23.8076ZM23.7362 8.3038H18.2169V10.3038H23.7362V8.3038ZM17.2169 9.3038V11.6294H19.2169V9.3038H17.2169ZM18.2169 12.6294H23.7362V10.6294H18.2169V12.6294ZM24.7362 11.6294V9.3038H22.7362V11.6294H24.7362ZM20.3506 10.8217L21.6002 3.32565L19.6274 2.99678L18.3778 10.4928L20.3506 10.8217ZM17.3328 2.61387L16.0832 10.1115L18.056 10.4403L19.3056 2.94267L17.3328 2.61387ZM16.9057 11.2624L19.2002 11.6437L19.5282 9.67082L17.2336 9.28942L16.9057 11.2624ZM17.9378 -0.99845H17.6061V1.00155H17.9378V-0.99845ZM17.6061 3.32711H17.9363V1.32711H17.6061V3.32711ZM11.9353 2.03603L8.03606 7.8856L9.70023 8.99489L13.5994 3.14533L11.9353 2.03603ZM11.6351 10.2848L15.5343 4.43524L13.8701 3.32594L9.97093 9.17551L11.6351 10.2848ZM15.2569 3.04854L13.322 1.75863L12.2126 3.42273L14.1475 4.71264L15.2569 3.04854ZM7.25576 8.3038H1.16278V10.3038H7.25576V8.3038ZM0.162782 9.3038V11.6294H2.16278V9.3038H0.162782ZM1.16278 12.6294H7.25576V10.6294H1.16278V12.6294ZM8.25576 11.6294V9.3038H6.25576V11.6294H8.25576ZM-1 10.4666V22.8696H1V10.4666H-1ZM3.32556 22.8696V10.4666H1.32556V22.8696H3.32556ZM2.32556 9.46659H0V11.4666H2.32556V9.46659ZM27.0377 23.9029L28.8982 14.6007L26.937 14.2084L25.0766 23.5107L27.0377 23.9029ZM28.1144 13.4241L25.8353 12.9667L25.4418 14.9276L27.7209 15.385L28.1144 13.4241ZM24.658 13.7511L22.7975 23.0533L24.7587 23.4455L26.6191 14.1433L24.658 13.7511ZM23.5814 24.2299L25.8604 24.6872L26.2539 22.7263L23.9749 22.269L23.5814 24.2299ZM8.0359 7.88584C7.95166 8.0123 7.83646 8.11704 7.69811 8.19113L8.64237 9.95419C9.06658 9.727 9.43084 9.3993 9.7004 8.99464L8.0359 7.88584ZM7.69811 8.19113C7.56198 8.26404 7.40994 8.30221 7.25551 8.30225L7.25601 10.3023C7.73973 10.3021 8.21595 10.1826 8.64237 9.95419L7.69811 8.19113ZM6.25576 9.30225V11.6278H8.25576V9.30225H6.25576ZM7.25576 12.6278C9.0162 12.6278 10.6588 11.7493 11.6351 10.2849L9.97097 9.17546C9.36588 10.0831 8.34801 10.6278 7.25576 10.6278V12.6278ZM21.6003 3.32522C21.6886 2.79356 21.6603 2.24735 21.5169 1.72752L19.5889 2.25925C19.655 2.49888 19.6681 2.75172 19.6273 2.99722L21.6003 3.32522ZM21.5169 1.72752C21.3736 1.20784 21.1188 0.725588 20.7703 0.31429L19.2444 1.60722C19.4052 1.79698 19.5227 2.01947 19.5889 2.25925L21.5169 1.72752ZM20.7703 0.31429C20.4218 -0.0970061 19.9879 -0.427485 19.4988 -0.654181L18.6578 1.16039C18.8834 1.26498 19.0836 1.41745 19.2444 1.60722L20.7703 0.31429ZM19.4988 -0.654181C19.0097 -0.880878 18.4771 -0.998356 17.938 -0.99845L17.9377 1.00155C18.1864 1.00159 18.4321 1.05579 18.6578 1.16039L19.4988 -0.654181ZM17.9338 3.32711C17.8491 3.3269 17.7626 3.30907 17.6784 3.26989L18.5226 1.45677C18.3365 1.37015 18.1359 1.3276 17.9388 1.32712L17.9338 3.32711ZM17.6784 3.26989C17.5979 3.23241 17.5265 3.17788 17.4692 3.11007L18.9966 1.81889C18.8667 1.66524 18.7049 1.54168 18.5226 1.45677L17.6784 3.26989ZM17.4692 3.11007C17.4119 3.04226 17.37 2.96279 17.3464 2.87718L19.2748 2.34657C19.2214 2.15259 19.1265 1.97254 18.9966 1.81889L17.4692 3.11007ZM17.3464 2.87718C17.3229 2.79157 17.3182 2.70186 17.3328 2.61427L19.3057 2.94228C19.3387 2.74381 19.3281 2.54054 19.2748 2.34657L17.3464 2.87718ZM23.7362 12.6278C24.3287 12.6278 24.7721 13.1688 24.6563 13.7502L26.6177 14.141C26.9794 12.3256 25.5934 10.6278 23.7362 10.6278V12.6278ZM25.4404 14.9261L27.721 15.3835L28.1142 13.4225L25.8336 12.9652L25.4404 14.9261ZM28.8983 14.5986C29.0506 13.8352 29.0317 13.0458 28.8428 12.2905L26.9025 12.7756C27.0196 13.2439 27.0314 13.7339 26.9369 14.2074L28.8983 14.5986ZM28.8428 12.2905C28.6539 11.5352 28.2998 10.8312 27.8061 10.2292L26.2597 11.4976C26.5659 11.8708 26.7854 12.3073 26.9025 12.7756L28.8428 12.2905ZM27.8061 10.2292C27.3123 9.62726 26.6912 9.14233 25.9874 8.80939L25.1321 10.6173C25.5685 10.8237 25.9536 11.1244 26.2597 11.4976L27.8061 10.2292ZM25.9874 8.80939C25.2836 8.47644 24.5148 8.30376 23.7362 8.3038L23.7363 10.3038C24.219 10.3038 24.6957 10.4108 25.1321 10.6173L25.9874 8.80939ZM22.7362 9.3038V11.6278H24.7362V9.3038H22.7362ZM21.8756 28.1331C23.0934 28.1334 24.2724 27.7098 25.2127 26.9393L23.9451 25.3923C23.3608 25.8712 22.6294 26.1333 21.876 26.1331L21.8756 28.1331ZM25.2127 26.9393C26.1539 26.1681 26.7988 25.0947 27.0377 23.9016L25.0766 23.5089C24.9285 24.2486 24.5286 24.9142 23.9451 25.3923L25.2127 26.9393ZM26.2539 22.7248L23.9749 22.2674L23.5814 24.2283L25.8604 24.6857L26.2539 22.7248ZM22.7975 23.0519C22.755 23.2647 22.64 23.4562 22.4721 23.5937L23.7394 25.1409C24.2652 24.7102 24.6255 24.1104 24.7587 23.4439L22.7975 23.0519ZM22.4721 23.5937C22.3024 23.7327 22.0915 23.8078 21.8768 23.8076L21.8748 25.8076C22.5569 25.8082 23.2153 25.5702 23.7394 25.1409L22.4721 23.5937ZM17.606 -0.99845C16.4854 -0.998368 15.3809 -0.723423 14.391 -0.19356L15.3348 1.56974C16.0325 1.19627 16.8126 1.00161 17.6061 1.00155L17.606 -0.99845ZM14.391 -0.19356C13.402 0.335789 12.559 1.10111 11.9368 2.03446L13.601 3.14379C14.0405 2.48439 14.6361 1.94371 15.3348 1.56974L14.391 -0.19356ZM12.2134 3.42066L14.1467 4.71213L15.2577 3.04905L13.3244 1.75759L12.2134 3.42066ZM15.5343 4.43526C15.7624 4.0931 16.0708 3.81247 16.431 3.6198L15.4876 1.8563C14.8345 2.20565 14.2794 2.71199 13.8701 3.32592L15.5343 4.43526ZM16.431 3.6198C16.7908 3.42734 17.1941 3.32696 17.6057 3.32711L17.6064 1.32711C16.869 1.32684 16.141 1.50675 15.4876 1.8563L16.431 3.6198ZM4.26353 23.8076C3.74606 23.8076 3.32556 23.3871 3.32556 22.8696H1.32556C1.32556 24.4916 2.64149 25.8076 4.26353 25.8076V23.8076ZM-1 22.8696C-1 24.2656 -0.445451 25.6044 0.541653 26.5915L1.95587 25.1773C1.34384 24.5652 1 23.7351 1 22.8696H-1ZM0.541653 26.5915C1.52876 27.5786 2.86756 28.1331 4.26353 28.1331V26.1331C3.39799 26.1331 2.5679 25.7893 1.95587 25.1773L0.541653 26.5915Z" fill="#64686C" mask="url(#path-1-inside-1_42_71)"/>
<path d="M7.36432 10.4666V25.9703" stroke="#64686C" stroke-width="2.2"/>
</svg>
